<?xml version="1.0" encoding="UTF-8" standalone="no"?><svg xmlns="http://www.w3.org/2000/svg" xmlns:xlink="http://www.w3.org/1999/xlink" clip-rule="evenodd" stroke-miterlimit="4.00" viewBox="0 0 1024 768"><desc>SVG generated by Keynote</desc><defs></defs><g transform="matrix(1.00, 0.00, -0.00, -1.00, 0.0, 768.0)"><path d="M 0.0 768.0 L 1024.0 768.0 L 1024.0 0.0 L 0.0 0.0 Z M 0.0 768.0 " fill="#212121"></path><path d="M 0.0 0.0 L 960.0 0.0 " fill="none" stroke="#A6AAA9" stroke-width="2.00" transform="matrix(1.00, 0.00, 0.00, -1.00, 32.0, 689.8)"></path><text xml:space="preserve" font-family="DINAlternate-Bold" font-weight="bold" font-size="24.0" fill="#838686" transform="matrix(1.00, 0.00, -0.00, -1.00, 36.0, 705.0)">S</text><text xml:space="preserve" font-family="DINAlternate-Bold" font-weight="bold" font-size="24.0" fill="#838686" transform="matrix(1.00, 0.00, -0.00, -1.00, 51.0, 705.0)">T</text><text xml:space="preserve" font-family="DINAlternate-Bold" font-weight="bold" font-size="24.0" fill="#838686" transform="matrix(1.00, 0.00, -0.00, -1.00, 64.2, 705.0)">E</text><text xml:space="preserve" font-family="DINAlternate-Bold" font-weight="bold" font-size="24.0" fill="#838686" transform="matrix(1.00, 0.00, -0.00, -1.00, 78.7, 705.0)">P</text><text xml:space="preserve" font-family="DINAlternate-Bold" font-weight="bold" font-size="24.0" fill="#838686" transform="matrix(1.00, 0.00, -0.00, -1.00, 94.1, 705.0)"> </text><text xml:space="preserve" font-family="DINAlternate-Bold" font-weight="bold" font-size="24.0" fill="#838686" transform="matrix(1.00, 0.00, -0.00, -1.00, 101.1, 705.0)">1</text><text xml:space="preserve" font-family="DINCondensed-Bold" font-weight="bold" font-size="48.0" fill="#34A4DA" transform="matrix(1.00, 0.00, -0.00, -1.00, 36.0, 608.0)">M</text><text xml:space="preserve" font-family="DINCondensed-Bold" font-weight="bold" font-size="48.0" fill="#34A4DA" transform="matrix(1.00, 0.00, -0.00, -1.00, 62.7, 608.0)">A</text><text xml:space="preserve" font-family="DINCondensed-Bold" font-weight="bold" font-size="48.0" fill="#34A4DA" transform="matrix(1.00, 0.00, -0.00, -1.00, 82.2, 608.0)">K</text><text xml:space="preserve" font-family="DINCondensed-Bold" font-weight="bold" font-size="48.0" fill="#34A4DA" transform="matrix(1.00, 0.00, -0.00, -1.00, 102.7, 608.0)">E</text><text xml:space="preserve" font-family="DINCondensed-Bold" font-weight="bold" font-size="48.0" fill="#34A4DA" transform="matrix(1.00, 0.00, -0.00, -1.00, 120.4, 608.0)"> </text><text xml:space="preserve" font-family="DINCondensed-Bold" font-weight="bold" font-size="48.0" fill="#34A4DA" transform="matrix(1.00, 0.00, -0.00, -1.00, 129.4, 608.0)">M</text><text xml:space="preserve" font-family="DINCondensed-Bold" font-weight="bold" font-size="48.0" fill="#34A4DA" transform="matrix(1.00, 0.00, -0.00, -1.00, 156.0, 608.0)">E</text><text xml:space="preserve" font-family="DINCondensed-Bold" font-weight="bold" font-size="48.0" fill="#34A4DA" transform="matrix(1.00, 0.00, -0.00, -1.00, 173.8, 608.0)">T</text><text xml:space="preserve" font-family="DINCondensed-Bold" font-weight="bold" font-size="48.0" fill="#34A4DA" transform="matrix(1.00, 0.00, -0.00, -1.00, 189.7, 608.0)">E</text><text xml:space="preserve" font-family="DINCondensed-Bold" font-weight="bold" font-size="48.0" fill="#34A4DA" transform="matrix(1.00, 0.00, -0.00, -1.00, 207.5, 608.0)">O</text><text xml:space="preserve" font-family="DINCondensed-Bold" font-weight="bold" font-size="48.0" fill="#34A4DA" transform="matrix(1.00, 0.00, -0.00, -1.00, 228.0, 608.0)">R</text><text xml:space="preserve" font-family="DINCondensed-Bold" font-weight="bold" font-size="48.0" fill="#34A4DA" transform="matrix(1.00, 0.00, -0.00, -1.00, 248.4, 608.0)"> </text><text xml:space="preserve" font-family="DINCondensed-Bold" font-weight="bold" font-size="48.0" fill="#34A4DA" transform="matrix(1.00, 0.00, -0.00, -1.00, 257.3, 608.0)">A</text><text xml:space="preserve" font-family="DINCondensed-Bold" font-weight="bold" font-size="48.0" fill="#34A4DA" transform="matrix(1.00, 0.00, -0.00, -1.00, 276.9, 608.0)">P</text><text xml:space="preserve" font-family="DINCondensed-Bold" font-weight="bold" font-size="48.0" fill="#34A4DA" transform="matrix(1.00, 0.00, -0.00, -1.00, 296.4, 608.0)">P</text><text xml:space="preserve" font-family="AvenirNext-Medium" font-size="40.0" fill="#A6AAA8" transform="matrix(1.00, 0.00, -0.00, -1.00, 95.0, 417.0)">1</text><text xml:space="preserve" font-family="AvenirNext-Medium" font-size="40.0" fill="#A6AAA8" transform="matrix(1.00, 0.00, -0.00, -1.00, 118.8, 417.0)">)</text><text xml:space="preserve" font-family="AvenirNext-Medium" font-size="40.0" fill="#A6AAA8" transform="matrix(1.00, 0.00, -0.00, -1.00, 131.4, 417.0)"> </text><text xml:space="preserve" font-family="AvenirNext-Medium" font-size="40.0" fill="#A6AAA8" transform="matrix(1.00, 0.00, -0.00, -1.00, 95.0, 338.0)">2</text><text xml:space="preserve" font-family="AvenirNext-Medium" font-size="40.0" fill="#A6AAA8" transform="matrix(1.00, 0.00, -0.00, -1.00, 118.8, 338.0)">)</text><text xml:space="preserve" font-family="AvenirNext-Medium" font-size="40.0" fill="#A6AAA8" transform="matrix(1.00, 0.00, -0.00, -1.00, 131.4, 338.0)"> </text><text xml:space="preserve" font-family="AvenirNext-Medium" font-size="40.0" fill="#A6AAA8" transform="matrix(1.00, 0.00, -0.00, -1.00, 95.0, 259.0)">3</text><text xml:space="preserve" font-family="AvenirNext-Medium" font-size="40.0" fill="#A6AAA8" transform="matrix(1.00, 0.00, -0.00, -1.00, 118.8, 259.0)">)</text><text xml:space="preserve" font-family="AvenirNext-Medium" font-size="40.0" fill="#A6AAA8" transform="matrix(1.00, 0.00, -0.00, -1.00, 131.4, 259.0)"> </text><text xml:space="preserve" font-family="AvenirNext-Medium" font-size="40.0" fill="#A6AAA8" transform="matrix(1.00, 0.00, -0.00, -1.00, 141.4, 259.0)"> </text><text xml:space="preserve" font-family="AvenirNext-Medium" font-size="40.0" fill="#A6AAA8" transform="matrix(1.00, 0.00, -0.00, -1.00, 151.4, 259.0)"> </text><text xml:space="preserve" font-family="AvenirNext-Medium" font-size="40.0" fill="#A6AAA8" transform="matrix(1.00, 0.00, -0.00, -1.00, 161.4, 259.0)">?</text><text xml:space="preserve" font-family="AvenirNext-Medium" font-size="40.0" fill="#A6AAA8" transform="matrix(1.00, 0.00, -0.00, -1.00, 181.4, 259.0)">?</text><text xml:space="preserve" font-family="AvenirNext-Medium" font-size="40.0" fill="#A6AAA8" transform="matrix(1.00, 0.00, -0.00, -1.00, 201.4, 259.0)">?</text><text xml:space="preserve" font-family="AvenirNext-Medium" font-size="40.0" fill="#A6AAA8" transform="matrix(1.00, 0.00, -0.00, -1.00, 221.4, 259.0)">?</text><text xml:space="preserve" font-family="AvenirNext-Medium" font-size="40.0" fill="#A6AAA8" transform="matrix(1.00, 0.00, -0.00, -1.00, 241.4, 259.0)">?</text><text xml:space="preserve" font-family="AvenirNext-Medium" font-size="40.0" fill="#A6AAA8" transform="matrix(1.00, 0.00, -0.00, -1.00, 261.4, 259.0)">?</text><text xml:space="preserve" font-family="AvenirNext-Medium" font-size="40.0" fill="#A6AAA8" transform="matrix(1.00, 0.00, -0.00, -1.00, 281.4, 259.0)">?</text><text xml:space="preserve" font-family="AvenirNext-Medium" font-size="40.0" fill="#A6AAA8" transform="matrix(1.00, 0.00, -0.00, -1.00, 301.4, 259.0)">?</text><text xml:space="preserve" font-family="AvenirNext-Medium" font-size="40.0" fill="#A6AAA8" transform="matrix(1.00, 0.00, -0.00, -1.00, 321.4, 259.0)">?</text><text xml:space="preserve" font-family="AvenirNext-Medium" font-size="40.0" fill="#A6AAA8" transform="matrix(1.00, 0.00, -0.00, -1.00, 341.4, 259.0)"> </text><text xml:space="preserve" font-family="AvenirNext-Medium" font-size="40.0" fill="#A6AAA8" transform="matrix(1.00, 0.00, -0.00, -1.00, 95.0, 180.0)">4</text><text xml:space="preserve" font-family="AvenirNext-Medium" font-size="40.0" fill="#A6AAA8" transform="matrix(1.00, 0.00, -0.00, -1.00, 118.8, 180.0)">)</text><text xml:space="preserve" font-family="AvenirNext-Medium" font-size="40.0" fill="#A6AAA8" transform="matrix(1.00, 0.00, -0.00, -1.00, 131.4, 180.0)"> </text><text xml:space="preserve" font-family="AvenirNext-Medium" font-size="40.0" fill="#A6AAA8" transform="matrix(1.00, 0.00, -0.00, -1.00, 141.4, 180.0)"> </text><text xml:space="preserve" font-family="AvenirNext-Medium" font-size="40.0" fill="#A6AAA8" transform="matrix(1.00, 0.00, -0.00, -1.00, 151.4, 180.0)"> </text><text xml:space="preserve" font-family="AvenirNext-Medium" font-size="40.0" fill="#A6AAA8" transform="matrix(1.00, 0.00, -0.00, -1.00, 161.4, 180.0)">P</text><text xml:space="preserve" font-family="AvenirNext-Medium" font-size="40.0" fill="#A6AAA8" transform="matrix(1.00, 0.00, -0.00, -1.00, 183.4, 180.0)">r</text><text xml:space="preserve" font-family="AvenirNext-Medium" font-size="40.0" fill="#A6AAA8" transform="matrix(1.00, 0.00, -0.00, -1.00, 197.1, 180.0)">o</text><text xml:space="preserve" font-family="AvenirNext-Medium" font-size="40.0" fill="#A6AAA8" transform="matrix(1.00, 0.00, -0.00, -1.00, 221.5, 180.0)">ï¬</text><text xml:space="preserve" font-family="AvenirNext-Medium" font-size="40.0" fill="#A6AAA8" transform="matrix(1.00, 0.00, -0.00, -1.00, 244.5, 180.0)">t</text><text xml:space="preserve" font-family="AvenirNext-Medium" font-size="40.0" fill="#A6AAA8" transform="matrix(1.00, 0.00, -0.00, -1.00, 257.6, 180.0)">!</text><text xml:space="preserve" font-family="CourierNewPSMT" font-size="36.0" fill="#F3F3F3" transform="matrix(1.00, 0.00, -0.00, -1.00, 164.0, 424.0)">m</text><text xml:space="preserve" font-family="CourierNewPSMT" font-size="36.0" fill="#F3F3F3" transform="matrix(1.00, 0.00, -0.00, -1.00, 185.6, 424.0)">e</text><text xml:space="preserve" font-family="CourierNewPSMT" font-size="36.0" fill="#F3F3F3" transform="matrix(1.00, 0.00, -0.00, -1.00, 207.2, 424.0)">t</text><text xml:space="preserve" font-family="CourierNewPSMT" font-size="36.0" fill="#F3F3F3" transform="matrix(1.00, 0.00, -0.00, -1.00, 228.8, 424.0)">e</text><text xml:space="preserve" font-family="CourierNewPSMT" font-size="36.0" fill="#F3F3F3" transform="matrix(1.00, 0.00, -0.00, -1.00, 250.4, 424.0)">o</text><text xml:space="preserve" font-family="CourierNewPSMT" font-size="36.0" fill="#F3F3F3" transform="matrix(1.00, 0.00, -0.00, -1.00, 272.0, 424.0)">r</text><text xml:space="preserve" font-family="CourierNewPSMT" font-size="36.0" fill="#F3F3F3" transform="matrix(1.00, 0.00, -0.00, -1.00, 293.6, 424.0)"> </text><text xml:space="preserve" font-family="CourierNewPSMT" font-size="36.0" fill="#F3F3F3" transform="matrix(1.00, 0.00, -0.00, -1.00, 315.2, 424.0)">c</text><text xml:space="preserve" font-family="CourierNewPSMT" font-size="36.0" fill="#F3F3F3" transform="matrix(1.00, 0.00, -0.00, -1.00, 336.9, 424.0)">r</text><text xml:space="preserve" font-family="CourierNewPSMT" font-size="36.0" fill="#F3F3F3" transform="matrix(1.00, 0.00, -0.00, -1.00, 358.5, 424.0)">e</text><text xml:space="preserve" font-family="CourierNewPSMT" font-size="36.0" fill="#F3F3F3" transform="matrix(1.00, 0.00, -0.00, -1.00, 380.1, 424.0)">a</text><text xml:space="preserve" font-family="CourierNewPSMT" font-size="36.0" fill="#F3F3F3" transform="matrix(1.00, 0.00, -0.00, -1.00, 401.7, 424.0)">t</text><text xml:space="preserve" font-family="CourierNewPSMT" font-size="36.0" fill="#F3F3F3" transform="matrix(1.00, 0.00, -0.00, -1.00, 423.3, 424.0)">e</text><text xml:space="preserve" font-family="CourierNewPSMT" font-size="36.0" fill="#F3F3F3" transform="matrix(1.00, 0.00, -0.00, -1.00, 444.9, 424.0)"> </text><text xml:space="preserve" font-family="CourierNewPSMT" font-size="36.0" fill="#F3F3F3" transform="matrix(1.00, 0.00, -0.00, -1.00, 466.5, 424.0)">d</text><text xml:space="preserve" font-family="CourierNewPSMT" font-size="36.0" fill="#F3F3F3" transform="matrix(1.00, 0.00, -0.00, -1.00, 488.1, 424.0)">o</text><text xml:space="preserve" font-family="CourierNewPSMT" font-size="36.0" fill="#F3F3F3" transform="matrix(1.00, 0.00, -0.00, -1.00, 509.7, 424.0)">c</text><text xml:space="preserve" font-family="CourierNewPSMT" font-size="36.0" fill="#F3F3F3" transform="matrix(1.00, 0.00, -0.00, -1.00, 531.3, 424.0)">k</text><text xml:space="preserve" font-family="CourierNewPSMT" font-size="36.0" fill="#F3F3F3" transform="matrix(1.00, 0.00, -0.00, -1.00, 552.9, 424.0)">e</text><text xml:space="preserve" font-family="CourierNewPSMT" font-size="36.0" fill="#F3F3F3" transform="matrix(1.00, 0.00, -0.00, -1.00, 574.5, 424.0)">r</text><text xml:space="preserve" font-family="CourierNewPSMT" font-size="36.0" fill="#F3F3F3" transform="matrix(1.00, 0.00, -0.00, -1.00, 596.1, 424.0)">-</text><text xml:space="preserve" font-family="CourierNewPSMT" font-size="36.0" fill="#F3F3F3" transform="matrix(1.00, 0.00, -0.00, -1.00, 617.7, 424.0)">a</text><text xml:space="preserve" font-family="CourierNewPSMT" font-size="36.0" fill="#F3F3F3" transform="matrix(1.00, 0.00, -0.00, -1.00, 639.4, 424.0)">p</text><text xml:space="preserve" font-family="CourierNewPSMT" font-size="36.0" fill="#F3F3F3" transform="matrix(1.00, 0.00, -0.00, -1.00, 661.0, 424.0)">p</text><text xml:space="preserve" font-family="CourierNewPSMT" font-size="36.0" fill="#000000" transform="matrix(1.00, 0.00, -0.00, -1.00, 682.5, 424.0)"> </text><text xml:space="preserve" font-family="CourierNewPSMT" font-size="36.0" fill="#72FBA9" transform="matrix(1.00, 0.00, -0.00, -1.00, 158.0, 339.0)">c</text><text xml:space="preserve" font-family="CourierNewPSMT" font-size="36.0" fill="#72FBA9" transform="matrix(1.00, 0.00, -0.00, -1.00, 179.6, 339.0)">d</text><text xml:space="preserve" font-family="CourierNewPSMT" font-size="36.0" fill="#000000" transform="matrix(1.00, 0.00, -0.00, -1.00, 201.2, 339.0)"> </text><text xml:space="preserve" font-family="CourierNewPSMT" font-size="36.0" fill="#F3F3F3" transform="matrix(1.00, 0.00, -0.00, -1.00, 222.8, 339.0)">d</text><text xml:space="preserve" font-family="CourierNewPSMT" font-size="36.0" fill="#F3F3F3" transform="matrix(1.00, 0.00, -0.00, -1.00, 244.4, 339.0)">o</text><text xml:space="preserve" font-family="CourierNewPSMT" font-size="36.0" fill="#F3F3F3" transform="matrix(1.00, 0.00, -0.00, -1.00, 266.0, 339.0)">c</text><text xml:space="preserve" font-family="CourierNewPSMT" font-size="36.0" fill="#F3F3F3" transform="matrix(1.00, 0.00, -0.00, -1.00, 287.6, 339.0)">k</text><text xml:space="preserve" font-family="CourierNewPSMT" font-size="36.0" fill="#F3F3F3" transform="matrix(1.00, 0.00, -0.00, -1.00, 309.2, 339.0)">e</text><text xml:space="preserve" font-family="CourierNewPSMT" font-size="36.0" fill="#F3F3F3" transform="matrix(1.00, 0.00, -0.00, -1.00, 330.8, 339.0)">r</text><text xml:space="preserve" font-family="CourierNewPSMT" font-size="36.0" fill="#F3F3F3" transform="matrix(1.00, 0.00, -0.00, -1.00, 352.5, 339.0)">-</text><text xml:space="preserve" font-family="CourierNewPSMT" font-size="36.0" fill="#F3F3F3" transform="matrix(1.00, 0.00, -0.00, -1.00, 374.1, 339.0)">a</text><text xml:space="preserve" font-family="CourierNewPSMT" font-size="36.0" fill="#F3F3F3" transform="matrix(1.00, 0.00, -0.00, -1.00, 395.7, 339.0)">p</text><text xml:space="preserve" font-family="CourierNewPSMT" font-size="36.0" fill="#F3F3F3" transform="matrix(1.00, 0.00, -0.00, -1.00, 417.3, 339.0)">p</text><text xml:space="preserve" font-family="CourierNewPSMT" font-size="36.0" fill="#000000" transform="matrix(1.00, 0.00, -0.00, -1.00, 438.8, 339.0)"> </text></g></svg>