<?xml version="1.0" encoding="UTF-8" standalone="no"?><svg xmlns="http://www.w3.org/2000/svg" xmlns:xlink="http://www.w3.org/1999/xlink" clip-rule="evenodd" stroke-miterlimit="4.00" viewBox="0 0 1024 768"><desc>SVG generated by Keynote</desc><defs></defs><g transform="matrix(1.00, 0.00, -0.00, -1.00, 0.0, 768.0)"><path d="M 0.0 768.0 L 1024.0 768.0 L 1024.0 0.0 L 0.0 0.0 Z M 0.0 768.0 " fill="#212121"></path><path d="M 0.0 0.0 L 960.0 0.0 " fill="none" stroke="#A6AAA9" stroke-width="2.00" transform="matrix(1.00, 0.00, 0.00, -1.00, 32.0, 689.8)"></path><text xml:space="preserve" font-family="DINAlternate-Bold" font-weight="bold" font-size="24.0" fill="#838686" transform="matrix(1.00, 0.00, -0.00, -1.00, 36.0, 705.0)">S</text><text xml:space="preserve" font-family="DINAlternate-Bold" font-weight="bold" font-size="24.0" fill="#838686" transform="matrix(1.00, 0.00, -0.00, -1.00, 51.0, 705.0)">T</text><text xml:space="preserve" font-family="DINAlternate-Bold" font-weight="bold" font-size="24.0" fill="#838686" transform="matrix(1.00, 0.00, -0.00, -1.00, 64.2, 705.0)">E</text><text xml:space="preserve" font-family="DINAlternate-Bold" font-weight="bold" font-size="24.0" fill="#838686" transform="matrix(1.00, 0.00, -0.00, -1.00, 78.7, 705.0)">P</text><text xml:space="preserve" font-family="DINAlternate-Bold" font-weight="bold" font-size="24.0" fill="#838686" transform="matrix(1.00, 0.00, -0.00, -1.00, 94.1, 705.0)"> </text><text xml:space="preserve" font-family="DINAlternate-Bold" font-weight="bold" font-size="24.0" fill="#838686" transform="matrix(1.00, 0.00, -0.00, -1.00, 101.1, 705.0)">3</text><text xml:space="preserve" font-family="DINCondensed-Bold" font-weight="bold" font-size="48.0" fill="#34A4DA" transform="matrix(1.00, 0.00, -0.00, -1.00, 36.0, 619.0)">M</text><text xml:space="preserve" font-family="DINCondensed-Bold" font-weight="bold" font-size="48.0" fill="#34A4DA" transform="matrix(1.00, 0.00, -0.00, -1.00, 62.7, 619.0)">E</text><text xml:space="preserve" font-family="DINCondensed-Bold" font-weight="bold" font-size="48.0" fill="#34A4DA" transform="matrix(1.00, 0.00, -0.00, -1.00, 80.4, 619.0)">T</text><text xml:space="preserve" font-family="DINCondensed-Bold" font-weight="bold" font-size="48.0" fill="#34A4DA" transform="matrix(1.00, 0.00, -0.00, -1.00, 96.4, 619.0)">E</text><text xml:space="preserve" font-family="DINCondensed-Bold" font-weight="bold" font-size="48.0" fill="#34A4DA" transform="matrix(1.00, 0.00, -0.00, -1.00, 114.1, 619.0)">O</text><text xml:space="preserve" font-family="DINCondensed-Bold" font-weight="bold" font-size="48.0" fill="#34A4DA" transform="matrix(1.00, 0.00, -0.00, -1.00, 134.6, 619.0)">R</text><text xml:space="preserve" font-family="DINCondensed-Bold" font-weight="bold" font-size="48.0" fill="#34A4DA" transform="matrix(1.00, 0.00, -0.00, -1.00, 155.0, 619.0)"> </text><text xml:space="preserve" font-family="DINCondensed-Bold" font-weight="bold" font-size="48.0" fill="#34A4DA" transform="matrix(1.00, 0.00, -0.00, -1.00, 164.0, 619.0)">A</text><text xml:space="preserve" font-family="DINCondensed-Bold" font-weight="bold" font-size="48.0" fill="#34A4DA" transform="matrix(1.00, 0.00, -0.00, -1.00, 183.5, 619.0)">P</text><text xml:space="preserve" font-family="DINCondensed-Bold" font-weight="bold" font-size="48.0" fill="#34A4DA" transform="matrix(1.00, 0.00, -0.00, -1.00, 203.0, 619.0)">P</text><text xml:space="preserve" font-family="DINCondensed-Bold" font-weight="bold" font-size="48.0" fill="#34A4DA" transform="matrix(1.00, 0.00, -0.00, -1.00, 222.6, 619.0)"> </text><text xml:space="preserve" font-family="DINCondensed-Bold" font-weight="bold" font-size="48.0" fill="#34A4DA" transform="matrix(1.00, 0.00, -0.00, -1.00, 231.5, 619.0)">—</text><text xml:space="preserve" font-family="DINCondensed-Bold" font-weight="bold" font-size="48.0" fill="#34A4DA" transform="matrix(1.00, 0.00, -0.00, -1.00, 279.5, 619.0)">&gt;</text><text xml:space="preserve" font-family="DINCondensed-Bold" font-weight="bold" font-size="48.0" fill="#34A4DA" transform="matrix(1.00, 0.00, -0.00, -1.00, 308.3, 619.0)"> </text><text xml:space="preserve" font-family="DINCondensed-Bold" font-weight="bold" font-size="48.0" fill="#34A4DA" transform="matrix(1.00, 0.00, -0.00, -1.00, 317.2, 619.0)">D</text><text xml:space="preserve" font-family="DINCondensed-Bold" font-weight="bold" font-size="48.0" fill="#34A4DA" transform="matrix(1.00, 0.00, -0.00, -1.00, 337.7, 619.0)">O</text><text xml:space="preserve" font-family="DINCondensed-Bold" font-weight="bold" font-size="48.0" fill="#34A4DA" transform="matrix(1.00, 0.00, -0.00, -1.00, 358.1, 619.0)">C</text><text xml:space="preserve" font-family="DINCondensed-Bold" font-weight="bold" font-size="48.0" fill="#34A4DA" transform="matrix(1.00, 0.00, -0.00, -1.00, 377.7, 619.0)">K</text><text xml:space="preserve" font-family="DINCondensed-Bold" font-weight="bold" font-size="48.0" fill="#34A4DA" transform="matrix(1.00, 0.00, -0.00, -1.00, 398.1, 619.0)">E</text><text xml:space="preserve" font-family="DINCondensed-Bold" font-weight="bold" font-size="48.0" fill="#34A4DA" transform="matrix(1.00, 0.00, -0.00, -1.00, 415.9, 619.0)">R</text><text xml:space="preserve" font-family="DINCondensed-Bold" font-weight="bold" font-size="48.0" fill="#34A4DA" transform="matrix(1.00, 0.00, -0.00, -1.00, 436.3, 619.0)"> </text><text xml:space="preserve" font-family="DINCondensed-Bold" font-weight="bold" font-size="48.0" fill="#34A4DA" transform="matrix(1.00, 0.00, -0.00, -1.00, 445.2, 619.0)">I</text><text xml:space="preserve" font-family="DINCondensed-Bold" font-weight="bold" font-size="48.0" fill="#34A4DA" transform="matrix(1.00, 0.00, -0.00, -1.00, 455.0, 619.0)">M</text><text xml:space="preserve" font-family="DINCondensed-Bold" font-weight="bold" font-size="48.0" fill="#34A4DA" transform="matrix(1.00, 0.00, -0.00, -1.00, 481.7, 619.0)">A</text><text xml:space="preserve" font-family="DINCondensed-Bold" font-weight="bold" font-size="48.0" fill="#34A4DA" transform="matrix(1.00, 0.00, -0.00, -1.00, 501.3, 619.0)">G</text><text xml:space="preserve" font-family="DINCondensed-Bold" font-weight="bold" font-size="48.0" fill="#34A4DA" transform="matrix(1.00, 0.00, -0.00, -1.00, 521.7, 619.0)">E</text><text xml:space="preserve" font-family="LucidaGrande" font-size="35.7" fill="#34A4DA" transform="matrix(1.00, 0.00, -0.00, -1.00, 36.0, 540.0)">▸</text><text xml:space="preserve" font-family="AvenirNext-Medium" font-size="34.0" fill="#838686" transform="matrix(1.00, 0.00, -0.00, -1.00, 71.0, 543.0)">U</text><text xml:space="preserve" font-family="AvenirNext-Medium" font-size="34.0" fill="#838686" transform="matrix(1.00, 0.00, -0.00, -1.00, 95.2, 543.0)">s</text><text xml:space="preserve" font-family="AvenirNext-Medium" font-size="34.0" fill="#838686" transform="matrix(1.00, 0.00, -0.00, -1.00, 110.3, 543.0)">i</text><text xml:space="preserve" font-family="AvenirNext-Medium" font-size="34.0" fill="#838686" transform="matrix(1.00, 0.00, -0.00, -1.00, 119.1, 543.0)">n</text><text xml:space="preserve" font-family="AvenirNext-Medium" font-size="34.0" fill="#838686" transform="matrix(1.00, 0.00, -0.00, -1.00, 138.9, 543.0)">g</text><text xml:space="preserve" font-family="AvenirNext-Medium" font-size="34.0" fill="#838686" transform="matrix(1.00, 0.00, -0.00, -1.00, 160.4, 543.0)"> </text><text xml:space="preserve" font-family="AvenirNext-Medium" font-size="34.0" fill="#838686" transform="matrix(1.00, 0.00, -0.00, -1.00, 168.9, 543.0)">D</text><text xml:space="preserve" font-family="AvenirNext-Medium" font-size="34.0" fill="#838686" transform="matrix(1.00, 0.00, -0.00, -1.00, 194.8, 543.0)">o</text><text xml:space="preserve" font-family="AvenirNext-Medium" font-size="34.0" fill="#838686" transform="matrix(1.00, 0.00, -0.00, -1.00, 215.5, 543.0)">c</text><text xml:space="preserve" font-family="AvenirNext-Medium" font-size="34.0" fill="#838686" transform="matrix(1.00, 0.00, -0.00, -1.00, 232.3, 543.0)">k</text><text xml:space="preserve" font-family="AvenirNext-Medium" font-size="34.0" fill="#838686" transform="matrix(1.00, 0.00, -0.00, -1.00, 249.6, 543.0)">e</text><text xml:space="preserve" font-family="AvenirNext-Medium" font-size="34.0" fill="#838686" transform="matrix(1.00, 0.00, -0.00, -1.00, 269.1, 543.0)">r</text><text xml:space="preserve" font-family="AvenirNext-Medium" font-size="34.0" fill="#838686" transform="matrix(1.00, 0.00, -0.00, -1.00, 281.4, 543.0)">ﬁ</text><text xml:space="preserve" font-family="AvenirNext-Medium" font-size="34.0" fill="#838686" transform="matrix(1.00, 0.00, -0.00, -1.00, 300.9, 543.0)">l</text><text xml:space="preserve" font-family="AvenirNext-Medium" font-size="34.0" fill="#838686" transform="matrix(1.00, 0.00, -0.00, -1.00, 309.7, 543.0)">e</text><text xml:space="preserve" font-family="AvenirNext-Medium" font-size="34.0" fill="#838686" transform="matrix(1.00, 0.00, -0.00, -1.00, 329.2, 543.0)"> </text><text xml:space="preserve" font-family="AvenirNext-Medium" font-size="34.0" fill="#838686" transform="matrix(1.00, 0.00, -0.00, -1.00, 337.7, 543.0)">f</text><text xml:space="preserve" font-family="AvenirNext-Medium" font-size="34.0" fill="#838686" transform="matrix(1.00, 0.00, -0.00, -1.00, 348.3, 543.0)">r</text><text xml:space="preserve" font-family="AvenirNext-Medium" font-size="34.0" fill="#838686" transform="matrix(1.00, 0.00, -0.00, -1.00, 360.0, 543.0)">o</text><text xml:space="preserve" font-family="AvenirNext-Medium" font-size="34.0" fill="#838686" transform="matrix(1.00, 0.00, -0.00, -1.00, 380.7, 543.0)">m</text><text xml:space="preserve" font-family="AvenirNext-Medium" font-size="34.0" fill="#838686" transform="matrix(1.00, 0.00, -0.00, -1.00, 410.9, 543.0)">:</text><text xml:space="preserve" font-family="AvenirNext-Medium" font-size="34.0" fill="#838686" transform="matrix(1.00, 0.00, -0.00, -1.00, 421.1, 543.0)"> </text><text xml:space="preserve" font-family="AvenirNext-Medium" font-size="34.0" fill="#34A4DA" transform="matrix(1.00, 0.00, -0.00, -1.00, 429.6, 543.0)">m</text><text xml:space="preserve" font-family="AvenirNext-Medium" font-size="34.0" fill="#34A4DA" transform="matrix(1.00, 0.00, -0.00, -1.00, 459.7, 543.0)">e</text><text xml:space="preserve" font-family="AvenirNext-Medium" font-size="34.0" fill="#34A4DA" transform="matrix(1.00, 0.00, -0.00, -1.00, 479.2, 543.0)">t</text><text xml:space="preserve" font-family="AvenirNext-Medium" font-size="34.0" fill="#34A4DA" transform="matrix(1.00, 0.00, -0.00, -1.00, 490.4, 543.0)">e</text><text xml:space="preserve" font-family="AvenirNext-Medium" font-size="34.0" fill="#34A4DA" transform="matrix(1.00, 0.00, -0.00, -1.00, 509.9, 543.0)">o</text><text xml:space="preserve" font-family="AvenirNext-Medium" font-size="34.0" fill="#34A4DA" transform="matrix(1.00, 0.00, -0.00, -1.00, 530.6, 543.0)">r</text><text xml:space="preserve" font-family="AvenirNext-Medium" font-size="34.0" fill="#34A4DA" transform="matrix(1.00, 0.00, -0.00, -1.00, 542.9, 543.0)">h</text><text xml:space="preserve" font-family="AvenirNext-Medium" font-size="34.0" fill="#34A4DA" transform="matrix(1.00, 0.00, -0.00, -1.00, 562.8, 543.0)">a</text><text xml:space="preserve" font-family="AvenirNext-Medium" font-size="34.0" fill="#34A4DA" transform="matrix(1.00, 0.00, -0.00, -1.00, 581.2, 543.0)">c</text><text xml:space="preserve" font-family="AvenirNext-Medium" font-size="34.0" fill="#34A4DA" transform="matrix(1.00, 0.00, -0.00, -1.00, 598.0, 543.0)">k</text><text xml:space="preserve" font-family="AvenirNext-Medium" font-size="34.0" fill="#34A4DA" transform="matrix(1.00, 0.00, -0.00, -1.00, 615.7, 543.0)">s</text><text xml:space="preserve" font-family="AvenirNext-Medium" font-size="34.0" fill="#34A4DA" transform="matrix(1.00, 0.00, -0.00, -1.00, 630.8, 543.0)">/</text><text xml:space="preserve" font-family="AvenirNext-Medium" font-size="34.0" fill="#34A4DA" transform="matrix(1.00, 0.00, -0.00, -1.00, 643.7, 543.0)">m</text><text xml:space="preserve" font-family="AvenirNext-Medium" font-size="34.0" fill="#34A4DA" transform="matrix(1.00, 0.00, -0.00, -1.00, 673.9, 543.0)">e</text><text xml:space="preserve" font-family="AvenirNext-Medium" font-size="34.0" fill="#34A4DA" transform="matrix(1.00, 0.00, -0.00, -1.00, 693.4, 543.0)">t</text><text xml:space="preserve" font-family="AvenirNext-Medium" font-size="34.0" fill="#34A4DA" transform="matrix(1.00, 0.00, -0.00, -1.00, 704.6, 543.0)">e</text><text xml:space="preserve" font-family="AvenirNext-Medium" font-size="34.0" fill="#34A4DA" transform="matrix(1.00, 0.00, -0.00, -1.00, 724.0, 543.0)">o</text><text xml:space="preserve" font-family="AvenirNext-Medium" font-size="34.0" fill="#34A4DA" transform="matrix(1.00, 0.00, -0.00, -1.00, 744.8, 543.0)">r</text><text xml:space="preserve" font-family="AvenirNext-Medium" font-size="34.0" fill="#34A4DA" transform="matrix(1.00, 0.00, -0.00, -1.00, 756.5, 543.0)">d</text><text xml:space="preserve" font-family="AvenirNext-Medium" font-size="34.0" fill="#838686" transform="matrix(1.00, 0.00, -0.00, -1.00, 778.1, 543.0)"> </text><text xml:space="preserve" font-family="AvenirNext-Medium" font-size="34.0" fill="#838686" transform="matrix(1.00, 0.00, -0.00, -1.00, 786.6, 543.0)"> </text><g><clipPath id="clip-4"><path d="M 428.6 539.0 L 778.1 539.0 L 778.1 542.7 L 428.6 542.7 Z M 428.6 539.0 "></path></clipPath><g clip-path="url(#clip-4)"><path d="M 397.6 40.1 L 746.1 40.1 " fill="none" stroke="#34A4DA" stroke-width="1.70" stroke-miterlimit="0.00" transform="matrix(1.00, 0.00, 0.00, -1.00, 32.0, 581.0)"></path></g></g><text xml:space="preserve" font-family="LucidaGrande" font-size="35.7" fill="#34A4DA" transform="matrix(1.00, 0.00, -0.00, -1.00, 36.0, 466.0)">▸</text><text xml:space="preserve" font-family="AvenirNext-Medium" font-size="34.0" fill="#838686" transform="matrix(1.00, 0.00, -0.00, -1.00, 71.0, 469.0)">F</text><text xml:space="preserve" font-family="AvenirNext-Medium" font-size="34.0" fill="#838686" transform="matrix(1.00, 0.00, -0.00, -1.00, 88.7, 469.0)">o</text><text xml:space="preserve" font-family="AvenirNext-Medium" font-size="34.0" fill="#838686" transform="matrix(1.00, 0.00, -0.00, -1.00, 109.4, 469.0)">l</text><text xml:space="preserve" font-family="AvenirNext-Medium" font-size="34.0" fill="#838686" transform="matrix(1.00, 0.00, -0.00, -1.00, 118.3, 469.0)">l</text><text xml:space="preserve" font-family="AvenirNext-Medium" font-size="34.0" fill="#838686" transform="matrix(1.00, 0.00, -0.00, -1.00, 127.1, 469.0)">o</text><text xml:space="preserve" font-family="AvenirNext-Medium" font-size="34.0" fill="#838686" transform="matrix(1.00, 0.00, -0.00, -1.00, 147.8, 469.0)">w</text><text xml:space="preserve" font-family="AvenirNext-Medium" font-size="34.0" fill="#838686" transform="matrix(1.00, 0.00, -0.00, -1.00, 174.1, 469.0)">i</text><text xml:space="preserve" font-family="AvenirNext-Medium" font-size="34.0" fill="#838686" transform="matrix(1.00, 0.00, -0.00, -1.00, 182.9, 469.0)">n</text><text xml:space="preserve" font-family="AvenirNext-Medium" font-size="34.0" fill="#838686" transform="matrix(1.00, 0.00, -0.00, -1.00, 202.7, 469.0)">g</text><text xml:space="preserve" font-family="AvenirNext-Medium" font-size="34.0" fill="#838686" transform="matrix(1.00, 0.00, -0.00, -1.00, 224.2, 469.0)"> </text><text xml:space="preserve" font-family="AvenirNext-Medium" font-size="34.0" fill="#838686" transform="matrix(1.00, 0.00, -0.00, -1.00, 232.7, 469.0)">R</text><text xml:space="preserve" font-family="AvenirNext-Medium" font-size="34.0" fill="#838686" transform="matrix(1.00, 0.00, -0.00, -1.00, 253.6, 469.0)">E</text><text xml:space="preserve" font-family="AvenirNext-Medium" font-size="34.0" fill="#838686" transform="matrix(1.00, 0.00, -0.00, -1.00, 274.0, 469.0)">A</text><text xml:space="preserve" font-family="AvenirNext-Medium" font-size="34.0" fill="#838686" transform="matrix(1.00, 0.00, -0.00, -1.00, 298.2, 469.0)">D</text><text xml:space="preserve" font-family="AvenirNext-Medium" font-size="34.0" fill="#838686" transform="matrix(1.00, 0.00, -0.00, -1.00, 324.1, 469.0)">M</text><text xml:space="preserve" font-family="AvenirNext-Medium" font-size="34.0" fill="#838686" transform="matrix(1.00, 0.00, -0.00, -1.00, 354.8, 469.0)">E</text><text xml:space="preserve" font-family="AvenirNext-Medium" font-size="34.0" fill="#838686" transform="matrix(1.00, 0.00, -0.00, -1.00, 375.2, 469.0)"> </text><text xml:space="preserve" font-family="AvenirNext-Medium" font-size="34.0" fill="#838686" transform="matrix(1.00, 0.00, -0.00, -1.00, 383.7, 469.0)">o</text><text xml:space="preserve" font-family="AvenirNext-Medium" font-size="34.0" fill="#838686" transform="matrix(1.00, 0.00, -0.00, -1.00, 404.4, 469.0)">n</text><text xml:space="preserve" font-family="AvenirNext-Medium" font-size="34.0" fill="#838686" transform="matrix(1.00, 0.00, -0.00, -1.00, 424.2, 469.0)"> </text><text xml:space="preserve" font-family="AvenirNext-Medium" font-size="34.0" fill="#838686" transform="matrix(1.00, 0.00, -0.00, -1.00, 432.7, 469.0)">t</text><text xml:space="preserve" font-family="AvenirNext-Medium" font-size="34.0" fill="#838686" transform="matrix(1.00, 0.00, -0.00, -1.00, 443.9, 469.0)">h</text><text xml:space="preserve" font-family="AvenirNext-Medium" font-size="34.0" fill="#838686" transform="matrix(1.00, 0.00, -0.00, -1.00, 463.8, 469.0)">e</text><text xml:space="preserve" font-family="AvenirNext-Medium" font-size="34.0" fill="#838686" transform="matrix(1.00, 0.00, -0.00, -1.00, 483.3, 469.0)"> </text><text xml:space="preserve" font-family="AvenirNext-Medium" font-size="34.0" fill="#34A4DA" transform="matrix(1.00, 0.00, -0.00, -1.00, 491.8, 469.0)">G</text><text xml:space="preserve" font-family="AvenirNext-Medium" font-size="34.0" fill="#34A4DA" transform="matrix(1.00, 0.00, -0.00, -1.00, 518.2, 469.0)">i</text><text xml:space="preserve" font-family="AvenirNext-Medium" font-size="34.0" fill="#34A4DA" transform="matrix(1.00, 0.00, -0.00, -1.00, 527.0, 469.0)">t</text><text xml:space="preserve" font-family="AvenirNext-Medium" font-size="34.0" fill="#34A4DA" transform="matrix(1.00, 0.00, -0.00, -1.00, 538.2, 469.0)">h</text><text xml:space="preserve" font-family="AvenirNext-Medium" font-size="34.0" fill="#34A4DA" transform="matrix(1.00, 0.00, -0.00, -1.00, 558.0, 469.0)">u</text><text xml:space="preserve" font-family="AvenirNext-Medium" font-size="34.0" fill="#34A4DA" transform="matrix(1.00, 0.00, -0.00, -1.00, 577.8, 469.0)">b</text><text xml:space="preserve" font-family="AvenirNext-Medium" font-size="34.0" fill="#34A4DA" transform="matrix(1.00, 0.00, -0.00, -1.00, 599.5, 469.0)"> </text><text xml:space="preserve" font-family="AvenirNext-Medium" font-size="34.0" fill="#34A4DA" transform="matrix(1.00, 0.00, -0.00, -1.00, 608.0, 469.0)">P</text><text xml:space="preserve" font-family="AvenirNext-Medium" font-size="34.0" fill="#34A4DA" transform="matrix(1.00, 0.00, -0.00, -1.00, 626.3, 469.0)">a</text><text xml:space="preserve" font-family="AvenirNext-Medium" font-size="34.0" fill="#34A4DA" transform="matrix(1.00, 0.00, -0.00, -1.00, 644.7, 469.0)">g</text><text xml:space="preserve" font-family="AvenirNext-Medium" font-size="34.0" fill="#34A4DA" transform="matrix(1.00, 0.00, -0.00, -1.00, 666.2, 469.0)">e</text><g><clipPath id="clip-5"><path d="M 490.8 465.0 L 685.7 465.0 L 685.7 468.7 L 490.8 468.7 Z M 490.8 465.0 "></path></clipPath><g clip-path="url(#clip-5)"><path d="M 459.8 114.1 L 653.7 114.1 " fill="none" stroke="#34A4DA" stroke-width="1.70" stroke-miterlimit="0.00" transform="matrix(1.00, 0.00, 0.00, -1.00, 32.0, 581.0)"></path></g></g><g><clipPath id="clip-6"><path d="M 10.0 420.0 L 1015.0 420.0 L 1015.0 -246.0 L 10.0 -246.0 Z M 9.5 419.5 "></path></clipPath><g clip-path="url(#clip-6)"><image xlink:href="3E1C30B954CD9BE2791F0D5894E620D6.png" width="816.00" height="540.00" transform="matrix(1.23, 0.00, -0.00, -1.23, 10.0, 455.0)"></image></g></g></g></svg>