<?xml version="1.0" encoding="UTF-8" standalone="no"?><svg xmlns="http://www.w3.org/2000/svg" xmlns:xlink="http://www.w3.org/1999/xlink" clip-rule="evenodd" stroke-miterlimit="4.00" viewBox="0 0 1024 768"><desc>SVG generated by Keynote</desc><defs></defs><g transform="matrix(1.00, 0.00, -0.00, -1.00, 0.0, 768.0)"><path d="M 0.0 768.0 L 1024.0 768.0 L 1024.0 0.0 L 0.0 0.0 Z M 0.0 768.0 " fill="#212121"></path><path d="M 0.0 0.0 L 960.0 0.0 " fill="none" stroke="#A6AAA9" stroke-width="2.00" transform="matrix(1.00, 0.00, 0.00, -1.00, 32.0, 689.8)"></path><text xml:space="preserve" font-family="DINAlternate-Bold" font-weight="bold" font-size="24.0" fill="#838686" transform="matrix(1.00, 0.00, -0.00, -1.00, 36.0, 705.0)">S</text><text xml:space="preserve" font-family="DINAlternate-Bold" font-weight="bold" font-size="24.0" fill="#838686" transform="matrix(1.00, 0.00, -0.00, -1.00, 51.0, 705.0)">T</text><text xml:space="preserve" font-family="DINAlternate-Bold" font-weight="bold" font-size="24.0" fill="#838686" transform="matrix(1.00, 0.00, -0.00, -1.00, 64.2, 705.0)">E</text><text xml:space="preserve" font-family="DINAlternate-Bold" font-weight="bold" font-size="24.0" fill="#838686" transform="matrix(1.00, 0.00, -0.00, -1.00, 78.7, 705.0)">P</text><text xml:space="preserve" font-family="DINAlternate-Bold" font-weight="bold" font-size="24.0" fill="#838686" transform="matrix(1.00, 0.00, -0.00, -1.00, 94.1, 705.0)"> </text><text xml:space="preserve" font-family="DINAlternate-Bold" font-weight="bold" font-size="24.0" fill="#838686" transform="matrix(1.00, 0.00, -0.00, -1.00, 101.1, 705.0)">7</text><text xml:space="preserve" font-family="DINAlternate-Bold" font-weight="bold" font-size="24.0" fill="#838686" transform="matrix(1.00, 0.00, -0.00, -1.00, 113.8, 705.0)"> </text><text xml:space="preserve" font-family="DINAlternate-Bold" font-weight="bold" font-size="24.0" fill="#838686" transform="matrix(1.00, 0.00, -0.00, -1.00, 120.7, 705.0)">(</text><text xml:space="preserve" font-family="DINAlternate-Bold" font-weight="bold" font-size="24.0" fill="#838686" transform="matrix(1.00, 0.00, -0.00, -1.00, 128.6, 705.0)">C</text><text xml:space="preserve" font-family="DINAlternate-Bold" font-weight="bold" font-size="24.0" fill="#838686" transform="matrix(1.00, 0.00, -0.00, -1.00, 143.2, 705.0)">O</text><text xml:space="preserve" font-family="DINAlternate-Bold" font-weight="bold" font-size="24.0" fill="#838686" transform="matrix(1.00, 0.00, -0.00, -1.00, 159.0, 705.0)">N</text><text xml:space="preserve" font-family="DINAlternate-Bold" font-weight="bold" font-size="24.0" fill="#838686" transform="matrix(1.00, 0.00, -0.00, -1.00, 176.6, 705.0)">T</text><text xml:space="preserve" font-family="DINAlternate-Bold" font-weight="bold" font-size="24.0" fill="#838686" transform="matrix(1.00, 0.00, -0.00, -1.00, 187.1, 705.0)">.</text><text xml:space="preserve" font-family="DINAlternate-Bold" font-weight="bold" font-size="24.0" fill="#838686" transform="matrix(1.00, 0.00, -0.00, -1.00, 194.1, 705.0)">)</text><text xml:space="preserve" font-family="DINCondensed-Bold" font-weight="bold" font-size="48.0" fill="#34A4DA" transform="matrix(1.00, 0.00, -0.00, -1.00, 36.0, 608.0)">C</text><text xml:space="preserve" font-family="DINCondensed-Bold" font-weight="bold" font-size="48.0" fill="#34A4DA" transform="matrix(1.00, 0.00, -0.00, -1.00, 55.5, 608.0)">O</text><text xml:space="preserve" font-family="DINCondensed-Bold" font-weight="bold" font-size="48.0" fill="#34A4DA" transform="matrix(1.00, 0.00, -0.00, -1.00, 76.0, 608.0)">N</text><text xml:space="preserve" font-family="DINCondensed-Bold" font-weight="bold" font-size="48.0" fill="#34A4DA" transform="matrix(1.00, 0.00, -0.00, -1.00, 97.3, 608.0)">F</text><text xml:space="preserve" font-family="DINCondensed-Bold" font-weight="bold" font-size="48.0" fill="#34A4DA" transform="matrix(1.00, 0.00, -0.00, -1.00, 115.1, 608.0)">I</text><text xml:space="preserve" font-family="DINCondensed-Bold" font-weight="bold" font-size="48.0" fill="#34A4DA" transform="matrix(1.00, 0.00, -0.00, -1.00, 124.8, 608.0)">G</text><text xml:space="preserve" font-family="DINCondensed-Bold" font-weight="bold" font-size="48.0" fill="#34A4DA" transform="matrix(1.00, 0.00, -0.00, -1.00, 145.3, 608.0)">U</text><text xml:space="preserve" font-family="DINCondensed-Bold" font-weight="bold" font-size="48.0" fill="#34A4DA" transform="matrix(1.00, 0.00, -0.00, -1.00, 165.7, 608.0)">R</text><text xml:space="preserve" font-family="DINCondensed-Bold" font-weight="bold" font-size="48.0" fill="#34A4DA" transform="matrix(1.00, 0.00, -0.00, -1.00, 186.2, 608.0)">I</text><text xml:space="preserve" font-family="DINCondensed-Bold" font-weight="bold" font-size="48.0" fill="#34A4DA" transform="matrix(1.00, 0.00, -0.00, -1.00, 196.0, 608.0)">N</text><text xml:space="preserve" font-family="DINCondensed-Bold" font-weight="bold" font-size="48.0" fill="#34A4DA" transform="matrix(1.00, 0.00, -0.00, -1.00, 217.3, 608.0)">G</text><text xml:space="preserve" font-family="DINCondensed-Bold" font-weight="bold" font-size="48.0" fill="#34A4DA" transform="matrix(1.00, 0.00, -0.00, -1.00, 237.7, 608.0)"> </text><text xml:space="preserve" font-family="DINCondensed-Bold" font-weight="bold" font-size="48.0" fill="#34A4DA" transform="matrix(1.00, 0.00, -0.00, -1.00, 246.7, 608.0)">L</text><text xml:space="preserve" font-family="DINCondensed-Bold" font-weight="bold" font-size="48.0" fill="#34A4DA" transform="matrix(1.00, 0.00, -0.00, -1.00, 264.4, 608.0)">O</text><text xml:space="preserve" font-family="DINCondensed-Bold" font-weight="bold" font-size="48.0" fill="#34A4DA" transform="matrix(1.00, 0.00, -0.00, -1.00, 284.3, 608.0)">A</text><text xml:space="preserve" font-family="DINCondensed-Bold" font-weight="bold" font-size="48.0" fill="#34A4DA" transform="matrix(1.00, 0.00, -0.00, -1.00, 303.8, 608.0)">D</text><text xml:space="preserve" font-family="DINCondensed-Bold" font-weight="bold" font-size="48.0" fill="#34A4DA" transform="matrix(1.00, 0.00, -0.00, -1.00, 324.3, 608.0)"> </text><text xml:space="preserve" font-family="DINCondensed-Bold" font-weight="bold" font-size="48.0" fill="#34A4DA" transform="matrix(1.00, 0.00, -0.00, -1.00, 333.2, 608.0)">B</text><text xml:space="preserve" font-family="DINCondensed-Bold" font-weight="bold" font-size="48.0" fill="#34A4DA" transform="matrix(1.00, 0.00, -0.00, -1.00, 353.1, 608.0)">A</text><text xml:space="preserve" font-family="DINCondensed-Bold" font-weight="bold" font-size="48.0" fill="#34A4DA" transform="matrix(1.00, 0.00, -0.00, -1.00, 372.6, 608.0)">L</text><text xml:space="preserve" font-family="DINCondensed-Bold" font-weight="bold" font-size="48.0" fill="#34A4DA" transform="matrix(1.00, 0.00, -0.00, -1.00, 390.4, 608.0)">A</text><text xml:space="preserve" font-family="DINCondensed-Bold" font-weight="bold" font-size="48.0" fill="#34A4DA" transform="matrix(1.00, 0.00, -0.00, -1.00, 409.9, 608.0)">N</text><text xml:space="preserve" font-family="DINCondensed-Bold" font-weight="bold" font-size="48.0" fill="#34A4DA" transform="matrix(1.00, 0.00, -0.00, -1.00, 431.2, 608.0)">C</text><text xml:space="preserve" font-family="DINCondensed-Bold" font-weight="bold" font-size="48.0" fill="#34A4DA" transform="matrix(1.00, 0.00, -0.00, -1.00, 450.8, 608.0)">E</text><text xml:space="preserve" font-family="DINCondensed-Bold" font-weight="bold" font-size="48.0" fill="#34A4DA" transform="matrix(1.00, 0.00, -0.00, -1.00, 468.5, 608.0)">R</text><g><clipPath id="clip-14"><path d="M 124.0 582.0 L 860.0 582.0 L 860.0 22.0 L 124.0 22.0 Z M 124.4 581.7 "></path></clipPath><g clip-path="url(#clip-14)"><image xlink:href="F8097F6503F67443EC50F529FC5B3971.png" width="752.00" height="559.00" transform="matrix(1.00, 0.00, -0.00, -1.00, 124.0, 582.0)"></image></g></g></g></svg>