<?xml version="1.0" encoding="UTF-8" standalone="no"?><svg xmlns="http://www.w3.org/2000/svg" xmlns:xlink="http://www.w3.org/1999/xlink" clip-rule="evenodd" stroke-miterlimit="4.00" viewBox="0 0 1024 768"><desc>SVG generated by Keynote</desc><defs></defs><g transform="matrix(1.00, 0.00, -0.00, -1.00, 0.0, 768.0)"><path d="M 0.0 768.0 L 1024.0 768.0 L 1024.0 0.0 L 0.0 0.0 Z M 0.0 768.0 " fill="#212121"></path><path d="M 0.0 0.0 L 960.0 0.0 " fill="none" stroke="#A6AAA9" stroke-width="2.00" transform="matrix(1.00, 0.00, 0.00, -1.00, 32.0, 689.8)"></path><text xml:space="preserve" font-family="DINAlternate-Bold" font-weight="bold" font-size="24.0" fill="#838686" transform="matrix(1.00, 0.00, -0.00, -1.00, 36.0, 705.0)">S</text><text xml:space="preserve" font-family="DINAlternate-Bold" font-weight="bold" font-size="24.0" fill="#838686" transform="matrix(1.00, 0.00, -0.00, -1.00, 51.0, 705.0)">T</text><text xml:space="preserve" font-family="DINAlternate-Bold" font-weight="bold" font-size="24.0" fill="#838686" transform="matrix(1.00, 0.00, -0.00, -1.00, 64.2, 705.0)">E</text><text xml:space="preserve" font-family="DINAlternate-Bold" font-weight="bold" font-size="24.0" fill="#838686" transform="matrix(1.00, 0.00, -0.00, -1.00, 78.7, 705.0)">P</text><text xml:space="preserve" font-family="DINAlternate-Bold" font-weight="bold" font-size="24.0" fill="#838686" transform="matrix(1.00, 0.00, -0.00, -1.00, 94.1, 705.0)"> </text><text xml:space="preserve" font-family="DINAlternate-Bold" font-weight="bold" font-size="24.0" fill="#838686" transform="matrix(1.00, 0.00, -0.00, -1.00, 101.1, 705.0)">6</text><text xml:space="preserve" font-family="DINAlternate-Bold" font-weight="bold" font-size="24.0" fill="#838686" transform="matrix(1.00, 0.00, -0.00, -1.00, 113.8, 705.0)"> </text><text xml:space="preserve" font-family="DINAlternate-Bold" font-weight="bold" font-size="24.0" fill="#838686" transform="matrix(1.00, 0.00, -0.00, -1.00, 120.7, 705.0)">(</text><text xml:space="preserve" font-family="DINAlternate-Bold" font-weight="bold" font-size="24.0" fill="#838686" transform="matrix(1.00, 0.00, -0.00, -1.00, 128.6, 705.0)">C</text><text xml:space="preserve" font-family="DINAlternate-Bold" font-weight="bold" font-size="24.0" fill="#838686" transform="matrix(1.00, 0.00, -0.00, -1.00, 143.2, 705.0)">O</text><text xml:space="preserve" font-family="DINAlternate-Bold" font-weight="bold" font-size="24.0" fill="#838686" transform="matrix(1.00, 0.00, -0.00, -1.00, 159.0, 705.0)">N</text><text xml:space="preserve" font-family="DINAlternate-Bold" font-weight="bold" font-size="24.0" fill="#838686" transform="matrix(1.00, 0.00, -0.00, -1.00, 176.6, 705.0)">T</text><text xml:space="preserve" font-family="DINAlternate-Bold" font-weight="bold" font-size="24.0" fill="#838686" transform="matrix(1.00, 0.00, -0.00, -1.00, 187.1, 705.0)">.</text><text xml:space="preserve" font-family="DINAlternate-Bold" font-weight="bold" font-size="24.0" fill="#838686" transform="matrix(1.00, 0.00, -0.00, -1.00, 194.1, 705.0)">)</text><text xml:space="preserve" font-family="DINCondensed-Bold" font-weight="bold" font-size="48.0" fill="#34A4DA" transform="matrix(1.00, 0.00, -0.00, -1.00, 54.0, 608.0)">C</text><text xml:space="preserve" font-family="DINCondensed-Bold" font-weight="bold" font-size="48.0" fill="#34A4DA" transform="matrix(1.00, 0.00, -0.00, -1.00, 73.5, 608.0)">R</text><text xml:space="preserve" font-family="DINCondensed-Bold" font-weight="bold" font-size="48.0" fill="#34A4DA" transform="matrix(1.00, 0.00, -0.00, -1.00, 94.0, 608.0)">E</text><text xml:space="preserve" font-family="DINCondensed-Bold" font-weight="bold" font-size="48.0" fill="#34A4DA" transform="matrix(1.00, 0.00, -0.00, -1.00, 111.7, 608.0)">A</text><text xml:space="preserve" font-family="DINCondensed-Bold" font-weight="bold" font-size="48.0" fill="#34A4DA" transform="matrix(1.00, 0.00, -0.00, -1.00, 128.6, 608.0)">T</text><text xml:space="preserve" font-family="DINCondensed-Bold" font-weight="bold" font-size="48.0" fill="#34A4DA" transform="matrix(1.00, 0.00, -0.00, -1.00, 144.6, 608.0)">E</text><text xml:space="preserve" font-family="DINCondensed-Bold" font-weight="bold" font-size="48.0" fill="#34A4DA" transform="matrix(1.00, 0.00, -0.00, -1.00, 162.3, 608.0)"> </text><text xml:space="preserve" font-family="DINCondensed-Bold" font-weight="bold" font-size="48.0" fill="#34A4DA" transform="matrix(1.00, 0.00, -0.00, -1.00, 171.3, 608.0)">R</text><text xml:space="preserve" font-family="DINCondensed-Bold" font-weight="bold" font-size="48.0" fill="#34A4DA" transform="matrix(1.00, 0.00, -0.00, -1.00, 191.7, 608.0)">E</text><text xml:space="preserve" font-family="DINCondensed-Bold" font-weight="bold" font-size="48.0" fill="#34A4DA" transform="matrix(1.00, 0.00, -0.00, -1.00, 209.5, 608.0)">P</text><text xml:space="preserve" font-family="DINCondensed-Bold" font-weight="bold" font-size="48.0" fill="#34A4DA" transform="matrix(1.00, 0.00, -0.00, -1.00, 229.0, 608.0)">O</text><text xml:space="preserve" font-family="DINCondensed-Bold" font-weight="bold" font-size="48.0" fill="#34A4DA" transform="matrix(1.00, 0.00, -0.00, -1.00, 249.5, 608.0)">S</text><text xml:space="preserve" font-family="DINCondensed-Bold" font-weight="bold" font-size="48.0" fill="#34A4DA" transform="matrix(1.00, 0.00, -0.00, -1.00, 268.9, 608.0)">I</text><text xml:space="preserve" font-family="DINCondensed-Bold" font-weight="bold" font-size="48.0" fill="#34A4DA" transform="matrix(1.00, 0.00, -0.00, -1.00, 278.7, 608.0)">T</text><text xml:space="preserve" font-family="DINCondensed-Bold" font-weight="bold" font-size="48.0" fill="#34A4DA" transform="matrix(1.00, 0.00, -0.00, -1.00, 294.1, 608.0)">O</text><text xml:space="preserve" font-family="DINCondensed-Bold" font-weight="bold" font-size="48.0" fill="#34A4DA" transform="matrix(1.00, 0.00, -0.00, -1.00, 314.5, 608.0)">R</text><text xml:space="preserve" font-family="DINCondensed-Bold" font-weight="bold" font-size="48.0" fill="#34A4DA" transform="matrix(1.00, 0.00, -0.00, -1.00, 334.1, 608.0)">Y</text><text xml:space="preserve" font-family="DINCondensed-Bold" font-weight="bold" font-size="48.0" fill="#34A4DA" transform="matrix(1.00, 0.00, -0.00, -1.00, 352.8, 608.0)"> </text><text xml:space="preserve" font-family="DINCondensed-Bold" font-weight="bold" font-size="48.0" fill="#34A4DA" transform="matrix(1.00, 0.00, -0.00, -1.00, 361.7, 608.0)">I</text><text xml:space="preserve" font-family="DINCondensed-Bold" font-weight="bold" font-size="48.0" fill="#34A4DA" transform="matrix(1.00, 0.00, -0.00, -1.00, 371.5, 608.0)">N</text><text xml:space="preserve" font-family="DINCondensed-Bold" font-weight="bold" font-size="48.0" fill="#34A4DA" transform="matrix(1.00, 0.00, -0.00, -1.00, 392.8, 608.0)"> </text><text xml:space="preserve" font-family="DINCondensed-Bold" font-weight="bold" font-size="48.0" fill="#34A4DA" transform="matrix(1.00, 0.00, -0.00, -1.00, 401.7, 608.0)">E</text><text xml:space="preserve" font-family="DINCondensed-Bold" font-weight="bold" font-size="48.0" fill="#34A4DA" transform="matrix(1.00, 0.00, -0.00, -1.00, 419.5, 608.0)">C</text><text xml:space="preserve" font-family="DINCondensed-Bold" font-weight="bold" font-size="48.0" fill="#34A4DA" transform="matrix(1.00, 0.00, -0.00, -1.00, 439.0, 608.0)">S</text><g><clipPath id="clip-12"><path d="M -6.0 600.0 L 737.0 600.0 L 737.0 429.0 L -6.0 429.0 Z M -6.5 600.0 "></path></clipPath><g clip-path="url(#clip-12)"><image xlink:href="E7D6543D01628DA4B69FE54C9E6FF4BE.png" width="1128.00" height="684.00" transform="matrix(1.00, 0.00, -0.00, -1.00, -306.0, 644.0)"></image></g></g><text xml:space="preserve" font-family="CourierNewPSMT" font-size="14.0" fill="#F3F3F3" transform="matrix(1.00, 0.00, -0.00, -1.00, 7.0, 348.0)">$</text><text xml:space="preserve" font-family="CourierNewPSMT" font-size="14.0" fill="#F3F3F3" transform="matrix(1.00, 0.00, -0.00, -1.00, 15.4, 348.0)">&gt;</text><text xml:space="preserve" font-family="CourierNewPSMT" font-size="14.0" fill="#F3F3F3" transform="matrix(1.00, 0.00, -0.00, -1.00, 23.8, 348.0)"> </text><text xml:space="preserve" font-family="CourierNewPSMT" font-size="14.0" fill="#F3F3F3" transform="matrix(1.00, 0.00, -0.00, -1.00, 32.2, 348.0)">a</text><text xml:space="preserve" font-family="CourierNewPSMT" font-size="14.0" fill="#F3F3F3" transform="matrix(1.00, 0.00, -0.00, -1.00, 40.6, 348.0)">w</text><text xml:space="preserve" font-family="CourierNewPSMT" font-size="14.0" fill="#F3F3F3" transform="matrix(1.00, 0.00, -0.00, -1.00, 49.0, 348.0)">s</text><text xml:space="preserve" font-family="CourierNewPSMT" font-size="14.0" fill="#F3F3F3" transform="matrix(1.00, 0.00, -0.00, -1.00, 57.4, 348.0)"> </text><text xml:space="preserve" font-family="CourierNewPSMT" font-size="14.0" fill="#F3F3F3" transform="matrix(1.00, 0.00, -0.00, -1.00, 65.8, 348.0)">e</text><text xml:space="preserve" font-family="CourierNewPSMT" font-size="14.0" fill="#F3F3F3" transform="matrix(1.00, 0.00, -0.00, -1.00, 74.2, 348.0)">c</text><text xml:space="preserve" font-family="CourierNewPSMT" font-size="14.0" fill="#F3F3F3" transform="matrix(1.00, 0.00, -0.00, -1.00, 82.6, 348.0)">r</text><text xml:space="preserve" font-family="CourierNewPSMT" font-size="14.0" fill="#F3F3F3" transform="matrix(1.00, 0.00, -0.00, -1.00, 91.0, 348.0)"> </text><text xml:space="preserve" font-family="CourierNewPSMT" font-size="14.0" fill="#F3F3F3" transform="matrix(1.00, 0.00, -0.00, -1.00, 99.4, 348.0)">g</text><text xml:space="preserve" font-family="CourierNewPSMT" font-size="14.0" fill="#F3F3F3" transform="matrix(1.00, 0.00, -0.00, -1.00, 107.8, 348.0)">e</text><text xml:space="preserve" font-family="CourierNewPSMT" font-size="14.0" fill="#F3F3F3" transform="matrix(1.00, 0.00, -0.00, -1.00, 116.2, 348.0)">t</text><text xml:space="preserve" font-family="CourierNewPSMT" font-size="14.0" fill="#F3F3F3" transform="matrix(1.00, 0.00, -0.00, -1.00, 124.6, 348.0)">-</text><text xml:space="preserve" font-family="CourierNewPSMT" font-size="14.0" fill="#F3F3F3" transform="matrix(1.00, 0.00, -0.00, -1.00, 133.0, 348.0)">l</text><text xml:space="preserve" font-family="CourierNewPSMT" font-size="14.0" fill="#F3F3F3" transform="matrix(1.00, 0.00, -0.00, -1.00, 141.4, 348.0)">o</text><text xml:space="preserve" font-family="CourierNewPSMT" font-size="14.0" fill="#F3F3F3" transform="matrix(1.00, 0.00, -0.00, -1.00, 149.8, 348.0)">g</text><text xml:space="preserve" font-family="CourierNewPSMT" font-size="14.0" fill="#F3F3F3" transform="matrix(1.00, 0.00, -0.00, -1.00, 158.2, 348.0)">i</text><text xml:space="preserve" font-family="CourierNewPSMT" font-size="14.0" fill="#F3F3F3" transform="matrix(1.00, 0.00, -0.00, -1.00, 166.7, 348.0)">n</text><text xml:space="preserve" font-family="CourierNewPSMT" font-size="14.0" fill="#000000" transform="matrix(1.00, 0.00, -0.00, -1.00, 175.0, 348.0)"> </text><text xml:space="preserve" font-family="CourierNewPSMT" font-size="14.0" fill="#FF39D5" transform="matrix(1.00, 0.00, -0.00, -1.00, 183.4, 348.0)">-</text><text xml:space="preserve" font-family="CourierNewPSMT" font-size="14.0" fill="#FF39D5" transform="matrix(1.00, 0.00, -0.00, -1.00, 191.8, 348.0)">-</text><text xml:space="preserve" font-family="CourierNewPSMT" font-size="14.0" fill="#F3F3F3" transform="matrix(1.00, 0.00, -0.00, -1.00, 200.2, 348.0)">r</text><text xml:space="preserve" font-family="CourierNewPSMT" font-size="14.0" fill="#F3F3F3" transform="matrix(1.00, 0.00, -0.00, -1.00, 208.6, 348.0)">e</text><text xml:space="preserve" font-family="CourierNewPSMT" font-size="14.0" fill="#F3F3F3" transform="matrix(1.00, 0.00, -0.00, -1.00, 217.0, 348.0)">g</text><text xml:space="preserve" font-family="CourierNewPSMT" font-size="14.0" fill="#F3F3F3" transform="matrix(1.00, 0.00, -0.00, -1.00, 225.4, 348.0)">i</text><text xml:space="preserve" font-family="CourierNewPSMT" font-size="14.0" fill="#F3F3F3" transform="matrix(1.00, 0.00, -0.00, -1.00, 233.8, 348.0)">o</text><text xml:space="preserve" font-family="CourierNewPSMT" font-size="14.0" fill="#F3F3F3" transform="matrix(1.00, 0.00, -0.00, -1.00, 242.2, 348.0)">n</text><text xml:space="preserve" font-family="CourierNewPSMT" font-size="14.0" fill="#F3F3F3" transform="matrix(1.00, 0.00, -0.00, -1.00, 250.6, 348.0)"> </text><text xml:space="preserve" font-family="CourierNewPSMT" font-size="14.0" fill="#F3F3F3" transform="matrix(1.00, 0.00, -0.00, -1.00, 259.1, 348.0)">u</text><text xml:space="preserve" font-family="CourierNewPSMT" font-size="14.0" fill="#F3F3F3" transform="matrix(1.00, 0.00, -0.00, -1.00, 267.5, 348.0)">s</text><text xml:space="preserve" font-family="CourierNewPSMT" font-size="14.0" fill="#F3F3F3" transform="matrix(1.00, 0.00, -0.00, -1.00, 275.9, 348.0)">-</text><text xml:space="preserve" font-family="CourierNewPSMT" font-size="14.0" fill="#F3F3F3" transform="matrix(1.00, 0.00, -0.00, -1.00, 284.3, 348.0)">e</text><text xml:space="preserve" font-family="CourierNewPSMT" font-size="14.0" fill="#F3F3F3" transform="matrix(1.00, 0.00, -0.00, -1.00, 292.7, 348.0)">a</text><text xml:space="preserve" font-family="CourierNewPSMT" font-size="14.0" fill="#F3F3F3" transform="matrix(1.00, 0.00, -0.00, -1.00, 301.1, 348.0)">s</text><text xml:space="preserve" font-family="CourierNewPSMT" font-size="14.0" fill="#F3F3F3" transform="matrix(1.00, 0.00, -0.00, -1.00, 309.5, 348.0)">t</text><text xml:space="preserve" font-family="CourierNewPSMT" font-size="14.0" fill="#F3F3F3" transform="matrix(1.00, 0.00, -0.00, -1.00, 317.9, 348.0)">-</text><text xml:space="preserve" font-family="CourierNewPSMT" font-size="14.0" fill="#F3F3F3" transform="matrix(1.00, 0.00, -0.00, -1.00, 326.3, 348.0)">1</text><text xml:space="preserve" font-family="CourierNewPSMT" font-size="14.0" fill="#F3F3F3" transform="matrix(1.00, 0.00, -0.00, -1.00, 334.7, 348.0)"> </text><text xml:space="preserve" font-family="CourierNewPSMT" font-size="14.0" fill="#F3F3F3" transform="matrix(1.00, 0.00, -0.00, -1.00, 7.0, 316.0)">$</text><text xml:space="preserve" font-family="CourierNewPSMT" font-size="14.0" fill="#F3F3F3" transform="matrix(1.00, 0.00, -0.00, -1.00, 15.4, 316.0)">&gt;</text><text xml:space="preserve" font-family="CourierNewPSMT" font-size="14.0" fill="#F3F3F3" transform="matrix(1.00, 0.00, -0.00, -1.00, 23.8, 316.0)"> </text><text xml:space="preserve" font-family="CourierNewPSMT" font-size="14.0" fill="#F3F3F3" transform="matrix(1.00, 0.00, -0.00, -1.00, 32.2, 316.0)">d</text><text xml:space="preserve" font-family="CourierNewPSMT" font-size="14.0" fill="#F3F3F3" transform="matrix(1.00, 0.00, -0.00, -1.00, 40.6, 316.0)">o</text><text xml:space="preserve" font-family="CourierNewPSMT" font-size="14.0" fill="#F3F3F3" transform="matrix(1.00, 0.00, -0.00, -1.00, 49.0, 316.0)">c</text><text xml:space="preserve" font-family="CourierNewPSMT" font-size="14.0" fill="#F3F3F3" transform="matrix(1.00, 0.00, -0.00, -1.00, 57.4, 316.0)">k</text><text xml:space="preserve" font-family="CourierNewPSMT" font-size="14.0" fill="#F3F3F3" transform="matrix(1.00, 0.00, -0.00, -1.00, 65.8, 316.0)">e</text><text xml:space="preserve" font-family="CourierNewPSMT" font-size="14.0" fill="#F3F3F3" transform="matrix(1.00, 0.00, -0.00, -1.00, 74.2, 316.0)">r</text><text xml:space="preserve" font-family="CourierNewPSMT" font-size="14.0" fill="#F3F3F3" transform="matrix(1.00, 0.00, -0.00, -1.00, 82.6, 316.0)"> </text><text xml:space="preserve" font-family="CourierNewPSMT" font-size="14.0" fill="#F3F3F3" transform="matrix(1.00, 0.00, -0.00, -1.00, 91.0, 316.0)">l</text><text xml:space="preserve" font-family="CourierNewPSMT" font-size="14.0" fill="#F3F3F3" transform="matrix(1.00, 0.00, -0.00, -1.00, 99.4, 316.0)">o</text><text xml:space="preserve" font-family="CourierNewPSMT" font-size="14.0" fill="#F3F3F3" transform="matrix(1.00, 0.00, -0.00, -1.00, 107.8, 316.0)">g</text><text xml:space="preserve" font-family="CourierNewPSMT" font-size="14.0" fill="#F3F3F3" transform="matrix(1.00, 0.00, -0.00, -1.00, 116.2, 316.0)">i</text><text xml:space="preserve" font-family="CourierNewPSMT" font-size="14.0" fill="#F3F3F3" transform="matrix(1.00, 0.00, -0.00, -1.00, 124.6, 316.0)">n</text><text xml:space="preserve" font-family="CourierNewPSMT" font-size="14.0" fill="#000000" transform="matrix(1.00, 0.00, -0.00, -1.00, 133.0, 316.0)"> </text><text xml:space="preserve" font-family="CourierNewPSMT" font-size="14.0" fill="#FF39D5" transform="matrix(1.00, 0.00, -0.00, -1.00, 141.4, 316.0)">-</text><text xml:space="preserve" font-family="CourierNewPSMT" font-size="14.0" fill="#F3F3F3" transform="matrix(1.00, 0.00, -0.00, -1.00, 149.8, 316.0)">u</text><text xml:space="preserve" font-family="CourierNewPSMT" font-size="14.0" fill="#F3F3F3" transform="matrix(1.00, 0.00, -0.00, -1.00, 158.2, 316.0)"> </text><text xml:space="preserve" font-family="CourierNewPSMT" font-size="14.0" fill="#F3F3F3" transform="matrix(1.00, 0.00, -0.00, -1.00, 166.6, 316.0)">A</text><text xml:space="preserve" font-family="CourierNewPSMT" font-size="14.0" fill="#F3F3F3" transform="matrix(1.00, 0.00, -0.00, -1.00, 175.0, 316.0)">W</text><text xml:space="preserve" font-family="CourierNewPSMT" font-size="14.0" fill="#F3F3F3" transform="matrix(1.00, 0.00, -0.00, -1.00, 183.4, 316.0)">S</text><text xml:space="preserve" font-family="CourierNewPSMT" font-size="14.0" fill="#000000" transform="matrix(1.00, 0.00, -0.00, -1.00, 191.8, 316.0)"> </text><text xml:space="preserve" font-family="CourierNewPSMT" font-size="14.0" fill="#FF39D5" transform="matrix(1.00, 0.00, -0.00, -1.00, 200.2, 316.0)">-</text><text xml:space="preserve" font-family="CourierNewPSMT" font-size="14.0" fill="#F3F3F3" transform="matrix(1.00, 0.00, -0.00, -1.00, 208.6, 316.0)">p</text><text xml:space="preserve" font-family="CourierNewPSMT" font-size="14.0" fill="#F3F3F3" transform="matrix(1.00, 0.00, -0.00, -1.00, 217.0, 316.0)"> </text><text xml:space="preserve" font-family="CourierNewPSMT" font-size="14.0" fill="#F3F3F3" transform="matrix(1.00, 0.00, -0.00, -1.00, 225.4, 316.0)">…</text><text xml:space="preserve" font-family="CourierNewPSMT" font-size="14.0" fill="#F3F3F3" transform="matrix(1.00, 0.00, -0.00, -1.00, 233.8, 316.0)">…</text><text xml:space="preserve" font-family="CourierNewPSMT" font-size="14.0" fill="#F3F3F3" transform="matrix(1.00, 0.00, -0.00, -1.00, 242.2, 316.0)"> </text><text xml:space="preserve" font-family="CourierNewPSMT" font-size="14.0" fill="#F3F3F3" transform="matrix(1.00, 0.00, -0.00, -1.00, 7.0, 284.0)">$</text><text xml:space="preserve" font-family="CourierNewPSMT" font-size="14.0" fill="#F3F3F3" transform="matrix(1.00, 0.00, -0.00, -1.00, 15.4, 284.0)">&gt;</text><text xml:space="preserve" font-family="CourierNewPSMT" font-size="14.0" fill="#F3F3F3" transform="matrix(1.00, 0.00, -0.00, -1.00, 23.8, 284.0)"> </text><text xml:space="preserve" font-family="CourierNewPSMT" font-size="14.0" fill="#72FBA9" transform="matrix(1.00, 0.00, -0.00, -1.00, 32.2, 284.0)">e</text><text xml:space="preserve" font-family="CourierNewPSMT" font-size="14.0" fill="#72FBA9" transform="matrix(1.00, 0.00, -0.00, -1.00, 40.6, 284.0)">v</text><text xml:space="preserve" font-family="CourierNewPSMT" font-size="14.0" fill="#72FBA9" transform="matrix(1.00, 0.00, -0.00, -1.00, 49.0, 284.0)">a</text><text xml:space="preserve" font-family="CourierNewPSMT" font-size="14.0" fill="#72FBA9" transform="matrix(1.00, 0.00, -0.00, -1.00, 57.4, 284.0)">l</text><text xml:space="preserve" font-family="CourierNewPSMT" font-size="14.0" fill="#000000" transform="matrix(1.00, 0.00, -0.00, -1.00, 65.8, 284.0)"> </text><text xml:space="preserve" font-family="CourierNewPSMT" font-size="14.0" fill="#F3F3F3" transform="matrix(1.00, 0.00, -0.00, -1.00, 74.2, 284.0)">$</text><text xml:space="preserve" font-family="CourierNewPSMT" font-size="14.0" fill="#FF39D5" transform="matrix(1.00, 0.00, -0.00, -1.00, 82.6, 284.0)">(</text><text xml:space="preserve" font-family="CourierNewPSMT" font-size="14.0" fill="#F3F3F3" transform="matrix(1.00, 0.00, -0.00, -1.00, 91.0, 284.0)">d</text><text xml:space="preserve" font-family="CourierNewPSMT" font-size="14.0" fill="#F3F3F3" transform="matrix(1.00, 0.00, -0.00, -1.00, 99.4, 284.0)">o</text><text xml:space="preserve" font-family="CourierNewPSMT" font-size="14.0" fill="#F3F3F3" transform="matrix(1.00, 0.00, -0.00, -1.00, 107.8, 284.0)">c</text><text xml:space="preserve" font-family="CourierNewPSMT" font-size="14.0" fill="#F3F3F3" transform="matrix(1.00, 0.00, -0.00, -1.00, 116.2, 284.0)">k</text><text xml:space="preserve" font-family="CourierNewPSMT" font-size="14.0" fill="#F3F3F3" transform="matrix(1.00, 0.00, -0.00, -1.00, 124.6, 284.0)">e</text><text xml:space="preserve" font-family="CourierNewPSMT" font-size="14.0" fill="#F3F3F3" transform="matrix(1.00, 0.00, -0.00, -1.00, 133.0, 284.0)">r</text><text xml:space="preserve" font-family="CourierNewPSMT" font-size="14.0" fill="#F3F3F3" transform="matrix(1.00, 0.00, -0.00, -1.00, 141.4, 284.0)">-</text><text xml:space="preserve" font-family="CourierNewPSMT" font-size="14.0" fill="#F3F3F3" transform="matrix(1.00, 0.00, -0.00, -1.00, 149.8, 284.0)">m</text><text xml:space="preserve" font-family="CourierNewPSMT" font-size="14.0" fill="#F3F3F3" transform="matrix(1.00, 0.00, -0.00, -1.00, 158.2, 284.0)">a</text><text xml:space="preserve" font-family="CourierNewPSMT" font-size="14.0" fill="#F3F3F3" transform="matrix(1.00, 0.00, -0.00, -1.00, 166.6, 284.0)">c</text><text xml:space="preserve" font-family="CourierNewPSMT" font-size="14.0" fill="#F3F3F3" transform="matrix(1.00, 0.00, -0.00, -1.00, 175.0, 284.0)">h</text><text xml:space="preserve" font-family="CourierNewPSMT" font-size="14.0" fill="#F3F3F3" transform="matrix(1.00, 0.00, -0.00, -1.00, 183.4, 284.0)">i</text><text xml:space="preserve" font-family="CourierNewPSMT" font-size="14.0" fill="#F3F3F3" transform="matrix(1.00, 0.00, -0.00, -1.00, 191.8, 284.0)">n</text><text xml:space="preserve" font-family="CourierNewPSMT" font-size="14.0" fill="#F3F3F3" transform="matrix(1.00, 0.00, -0.00, -1.00, 200.2, 284.0)">e</text><text xml:space="preserve" font-family="CourierNewPSMT" font-size="14.0" fill="#F3F3F3" transform="matrix(1.00, 0.00, -0.00, -1.00, 208.7, 284.0)"> </text><text xml:space="preserve" font-family="CourierNewPSMT" font-size="14.0" fill="#F3F3F3" transform="matrix(1.00, 0.00, -0.00, -1.00, 217.1, 284.0)">e</text><text xml:space="preserve" font-family="CourierNewPSMT" font-size="14.0" fill="#F3F3F3" transform="matrix(1.00, 0.00, -0.00, -1.00, 225.5, 284.0)">n</text><text xml:space="preserve" font-family="CourierNewPSMT" font-size="14.0" fill="#F3F3F3" transform="matrix(1.00, 0.00, -0.00, -1.00, 233.9, 284.0)">v</text><text xml:space="preserve" font-family="CourierNewPSMT" font-size="14.0" fill="#F3F3F3" transform="matrix(1.00, 0.00, -0.00, -1.00, 242.3, 284.0)"> </text><text xml:space="preserve" font-family="CourierNewPSMT" font-size="14.0" fill="#F3F3F3" transform="matrix(1.00, 0.00, -0.00, -1.00, 250.7, 284.0)">d</text><text xml:space="preserve" font-family="CourierNewPSMT" font-size="14.0" fill="#F3F3F3" transform="matrix(1.00, 0.00, -0.00, -1.00, 259.1, 284.0)">e</text><text xml:space="preserve" font-family="CourierNewPSMT" font-size="14.0" fill="#F3F3F3" transform="matrix(1.00, 0.00, -0.00, -1.00, 267.5, 284.0)">f</text><text xml:space="preserve" font-family="CourierNewPSMT" font-size="14.0" fill="#F3F3F3" transform="matrix(1.00, 0.00, -0.00, -1.00, 275.9, 284.0)">a</text><text xml:space="preserve" font-family="CourierNewPSMT" font-size="14.0" fill="#F3F3F3" transform="matrix(1.00, 0.00, -0.00, -1.00, 284.3, 284.0)">u</text><text xml:space="preserve" font-family="CourierNewPSMT" font-size="14.0" fill="#F3F3F3" transform="matrix(1.00, 0.00, -0.00, -1.00, 292.7, 284.0)">l</text><text xml:space="preserve" font-family="CourierNewPSMT" font-size="14.0" fill="#F3F3F3" transform="matrix(1.00, 0.00, -0.00, -1.00, 301.1, 284.0)">t</text><text xml:space="preserve" font-family="CourierNewPSMT" font-size="14.0" fill="#000000" transform="matrix(1.00, 0.00, -0.00, -1.00, 309.4, 284.0)"> </text><text xml:space="preserve" font-family="CourierNewPSMT" font-size="14.0" fill="#FF39D5" transform="matrix(1.00, 0.00, -0.00, -1.00, 317.9, 284.0)">-</text><text xml:space="preserve" font-family="CourierNewPSMT" font-size="14.0" fill="#FF39D5" transform="matrix(1.00, 0.00, -0.00, -1.00, 326.3, 284.0)">-</text><text xml:space="preserve" font-family="CourierNewPSMT" font-size="14.0" fill="#F3F3F3" transform="matrix(1.00, 0.00, -0.00, -1.00, 334.7, 284.0)">s</text><text xml:space="preserve" font-family="CourierNewPSMT" font-size="14.0" fill="#F3F3F3" transform="matrix(1.00, 0.00, -0.00, -1.00, 343.1, 284.0)">h</text><text xml:space="preserve" font-family="CourierNewPSMT" font-size="14.0" fill="#F3F3F3" transform="matrix(1.00, 0.00, -0.00, -1.00, 351.5, 284.0)">e</text><text xml:space="preserve" font-family="CourierNewPSMT" font-size="14.0" fill="#F3F3F3" transform="matrix(1.00, 0.00, -0.00, -1.00, 359.9, 284.0)">l</text><text xml:space="preserve" font-family="CourierNewPSMT" font-size="14.0" fill="#F3F3F3" transform="matrix(1.00, 0.00, -0.00, -1.00, 368.3, 284.0)">l</text><text xml:space="preserve" font-family="CourierNewPSMT" font-size="14.0" fill="#F3F3F3" transform="matrix(1.00, 0.00, -0.00, -1.00, 376.7, 284.0)"> </text><text xml:space="preserve" font-family="CourierNewPSMT" font-size="14.0" fill="#F3F3F3" transform="matrix(1.00, 0.00, -0.00, -1.00, 385.1, 284.0)">b</text><text xml:space="preserve" font-family="CourierNewPSMT" font-size="14.0" fill="#F3F3F3" transform="matrix(1.00, 0.00, -0.00, -1.00, 393.5, 284.0)">a</text><text xml:space="preserve" font-family="CourierNewPSMT" font-size="14.0" fill="#F3F3F3" transform="matrix(1.00, 0.00, -0.00, -1.00, 401.9, 284.0)">s</text><text xml:space="preserve" font-family="CourierNewPSMT" font-size="14.0" fill="#F3F3F3" transform="matrix(1.00, 0.00, -0.00, -1.00, 410.3, 284.0)">h</text><text xml:space="preserve" font-family="CourierNewPSMT" font-size="14.0" fill="#FF39D5" transform="matrix(1.00, 0.00, -0.00, -1.00, 418.7, 284.0)">)</text><text xml:space="preserve" font-family="CourierNewPSMT" font-size="14.0" fill="#000000" transform="matrix(1.00, 0.00, -0.00, -1.00, 427.1, 284.0)"> </text><text xml:space="preserve" font-family="CourierNewPSMT" font-size="14.0" fill="#F3F3F3" transform="matrix(1.00, 0.00, -0.00, -1.00, 7.0, 252.0)">$</text><text xml:space="preserve" font-family="CourierNewPSMT" font-size="14.0" fill="#F3F3F3" transform="matrix(1.00, 0.00, -0.00, -1.00, 15.4, 252.0)">&gt;</text><text xml:space="preserve" font-family="CourierNewPSMT" font-size="14.0" fill="#F3F3F3" transform="matrix(1.00, 0.00, -0.00, -1.00, 23.8, 252.0)"> </text><text xml:space="preserve" font-family="CourierNewPSMT" font-size="12.0" fill="#F3F3F3" transform="matrix(1.00, 0.00, -0.00, -1.00, 32.2, 252.0)">d</text><text xml:space="preserve" font-family="CourierNewPSMT" font-size="12.0" fill="#F3F3F3" transform="matrix(1.00, 0.00, -0.00, -1.00, 39.4, 252.0)">o</text><text xml:space="preserve" font-family="CourierNewPSMT" font-size="12.0" fill="#F3F3F3" transform="matrix(1.00, 0.00, -0.00, -1.00, 46.6, 252.0)">c</text><text xml:space="preserve" font-family="CourierNewPSMT" font-size="12.0" fill="#F3F3F3" transform="matrix(1.00, 0.00, -0.00, -1.00, 53.8, 252.0)">k</text><text xml:space="preserve" font-family="CourierNewPSMT" font-size="12.0" fill="#F3F3F3" transform="matrix(1.00, 0.00, -0.00, -1.00, 61.0, 252.0)">e</text><text xml:space="preserve" font-family="CourierNewPSMT" font-size="12.0" fill="#F3F3F3" transform="matrix(1.00, 0.00, -0.00, -1.00, 68.2, 252.0)">r</text><text xml:space="preserve" font-family="CourierNewPSMT" font-size="12.0" fill="#F3F3F3" transform="matrix(1.00, 0.00, -0.00, -1.00, 75.4, 252.0)"> </text><text xml:space="preserve" font-family="CourierNewPSMT" font-size="12.0" fill="#F3F3F3" transform="matrix(1.00, 0.00, -0.00, -1.00, 82.6, 252.0)">t</text><text xml:space="preserve" font-family="CourierNewPSMT" font-size="12.0" fill="#F3F3F3" transform="matrix(1.00, 0.00, -0.00, -1.00, 89.8, 252.0)">a</text><text xml:space="preserve" font-family="CourierNewPSMT" font-size="12.0" fill="#F3F3F3" transform="matrix(1.00, 0.00, -0.00, -1.00, 97.0, 252.0)">g</text><text xml:space="preserve" font-family="CourierNewPSMT" font-size="12.0" fill="#F3F3F3" transform="matrix(1.00, 0.00, -0.00, -1.00, 104.2, 252.0)"> </text><text xml:space="preserve" font-family="CourierNewPSMT" font-size="12.0" fill="#F3F3F3" transform="matrix(1.00, 0.00, -0.00, -1.00, 111.4, 252.0)">j</text><text xml:space="preserve" font-family="CourierNewPSMT" font-size="12.0" fill="#F3F3F3" transform="matrix(1.00, 0.00, -0.00, -1.00, 118.6, 252.0)">u</text><text xml:space="preserve" font-family="CourierNewPSMT" font-size="12.0" fill="#F3F3F3" transform="matrix(1.00, 0.00, -0.00, -1.00, 125.8, 252.0)">s</text><text xml:space="preserve" font-family="CourierNewPSMT" font-size="12.0" fill="#F3F3F3" transform="matrix(1.00, 0.00, -0.00, -1.00, 133.0, 252.0)">t</text><text xml:space="preserve" font-family="CourierNewPSMT" font-size="12.0" fill="#F3F3F3" transform="matrix(1.00, 0.00, -0.00, -1.00, 140.2, 252.0)">i</text><text xml:space="preserve" font-family="CourierNewPSMT" font-size="12.0" fill="#F3F3F3" transform="matrix(1.00, 0.00, -0.00, -1.00, 147.4, 252.0)">n</text><text xml:space="preserve" font-family="CourierNewPSMT" font-size="12.0" fill="#F3F3F3" transform="matrix(1.00, 0.00, -0.00, -1.00, 154.6, 252.0)">k</text><text xml:space="preserve" font-family="CourierNewPSMT" font-size="12.0" fill="#FF39D5" transform="matrix(1.00, 0.00, -0.00, -1.00, 161.8, 252.0)">/</text><text xml:space="preserve" font-family="CourierNewPSMT" font-size="12.0" fill="#F3F3F3" transform="matrix(1.00, 0.00, -0.00, -1.00, 169.0, 252.0)">t</text><text xml:space="preserve" font-family="CourierNewPSMT" font-size="12.0" fill="#F3F3F3" transform="matrix(1.00, 0.00, -0.00, -1.00, 176.2, 252.0)">e</text><text xml:space="preserve" font-family="CourierNewPSMT" font-size="12.0" fill="#F3F3F3" transform="matrix(1.00, 0.00, -0.00, -1.00, 183.4, 252.0)">s</text><text xml:space="preserve" font-family="CourierNewPSMT" font-size="12.0" fill="#F3F3F3" transform="matrix(1.00, 0.00, -0.00, -1.00, 190.6, 252.0)">t</text><text xml:space="preserve" font-family="CourierNewPSMT" font-size="12.0" fill="#F3F3F3" transform="matrix(1.00, 0.00, -0.00, -1.00, 197.8, 252.0)">1</text><text xml:space="preserve" font-family="CourierNewPSMT" font-size="12.0" fill="#F3F3F3" transform="matrix(1.00, 0.00, -0.00, -1.00, 205.0, 252.0)">3</text><text xml:space="preserve" font-family="CourierNewPSMT" font-size="12.0" fill="#FF39D5" transform="matrix(1.00, 0.00, -0.00, -1.00, 212.2, 252.0)">:</text><text xml:space="preserve" font-family="CourierNewPSMT" font-size="12.0" fill="#F3F3F3" transform="matrix(1.00, 0.00, -0.00, -1.00, 219.4, 252.0)">l</text><text xml:space="preserve" font-family="CourierNewPSMT" font-size="12.0" fill="#F3F3F3" transform="matrix(1.00, 0.00, -0.00, -1.00, 226.6, 252.0)">a</text><text xml:space="preserve" font-family="CourierNewPSMT" font-size="12.0" fill="#F3F3F3" transform="matrix(1.00, 0.00, -0.00, -1.00, 233.8, 252.0)">t</text><text xml:space="preserve" font-family="CourierNewPSMT" font-size="12.0" fill="#F3F3F3" transform="matrix(1.00, 0.00, -0.00, -1.00, 241.0, 252.0)">e</text><text xml:space="preserve" font-family="CourierNewPSMT" font-size="12.0" fill="#F3F3F3" transform="matrix(1.00, 0.00, -0.00, -1.00, 248.2, 252.0)">s</text><text xml:space="preserve" font-family="CourierNewPSMT" font-size="12.0" fill="#F3F3F3" transform="matrix(1.00, 0.00, -0.00, -1.00, 255.4, 252.0)">t</text><text xml:space="preserve" font-family="CourierNewPSMT" font-size="12.0" fill="#000000" transform="matrix(1.00, 0.00, -0.00, -1.00, 262.6, 252.0)"> </text><text xml:space="preserve" font-family="CourierNewPSMT" font-size="12.0" fill="#E6BC98" transform="matrix(1.00, 0.00, -0.00, -1.00, 269.8, 252.0)">…</text><text xml:space="preserve" font-family="CourierNewPSMT" font-size="12.0" fill="#F3F3F3" transform="matrix(1.00, 0.00, -0.00, -1.00, 277.0, 252.0)">a</text><text xml:space="preserve" font-family="CourierNewPSMT" font-size="12.0" fill="#F3F3F3" transform="matrix(1.00, 0.00, -0.00, -1.00, 284.2, 252.0)">m</text><text xml:space="preserve" font-family="CourierNewPSMT" font-size="12.0" fill="#F3F3F3" transform="matrix(1.00, 0.00, -0.00, -1.00, 291.4, 252.0)">a</text><text xml:space="preserve" font-family="CourierNewPSMT" font-size="12.0" fill="#F3F3F3" transform="matrix(1.00, 0.00, -0.00, -1.00, 298.7, 252.0)">z</text><text xml:space="preserve" font-family="CourierNewPSMT" font-size="12.0" fill="#F3F3F3" transform="matrix(1.00, 0.00, -0.00, -1.00, 305.9, 252.0)">o</text><text xml:space="preserve" font-family="CourierNewPSMT" font-size="12.0" fill="#F3F3F3" transform="matrix(1.00, 0.00, -0.00, -1.00, 313.1, 252.0)">n</text><text xml:space="preserve" font-family="CourierNewPSMT" font-size="12.0" fill="#F3F3F3" transform="matrix(1.00, 0.00, -0.00, -1.00, 320.3, 252.0)">a</text><text xml:space="preserve" font-family="CourierNewPSMT" font-size="12.0" fill="#F3F3F3" transform="matrix(1.00, 0.00, -0.00, -1.00, 327.5, 252.0)">w</text><text xml:space="preserve" font-family="CourierNewPSMT" font-size="12.0" fill="#F3F3F3" transform="matrix(1.00, 0.00, -0.00, -1.00, 334.7, 252.0)">s</text><text xml:space="preserve" font-family="CourierNewPSMT" font-size="12.0" fill="#F3F3F3" transform="matrix(1.00, 0.00, -0.00, -1.00, 341.9, 252.0)">.</text><text xml:space="preserve" font-family="CourierNewPSMT" font-size="12.0" fill="#F3F3F3" transform="matrix(1.00, 0.00, -0.00, -1.00, 349.1, 252.0)">c</text><text xml:space="preserve" font-family="CourierNewPSMT" font-size="12.0" fill="#F3F3F3" transform="matrix(1.00, 0.00, -0.00, -1.00, 356.3, 252.0)">o</text><text xml:space="preserve" font-family="CourierNewPSMT" font-size="12.0" fill="#F3F3F3" transform="matrix(1.00, 0.00, -0.00, -1.00, 363.5, 252.0)">m</text><text xml:space="preserve" font-family="CourierNewPSMT" font-size="12.0" fill="#FF39D5" transform="matrix(1.00, 0.00, -0.00, -1.00, 370.7, 252.0)">/</text><text xml:space="preserve" font-family="CourierNewPSMT" font-size="12.0" fill="#F3F3F3" transform="matrix(1.00, 0.00, -0.00, -1.00, 377.9, 252.0)">j</text><text xml:space="preserve" font-family="CourierNewPSMT" font-size="12.0" fill="#F3F3F3" transform="matrix(1.00, 0.00, -0.00, -1.00, 385.1, 252.0)">u</text><text xml:space="preserve" font-family="CourierNewPSMT" font-size="12.0" fill="#F3F3F3" transform="matrix(1.00, 0.00, -0.00, -1.00, 392.3, 252.0)">s</text><text xml:space="preserve" font-family="CourierNewPSMT" font-size="12.0" fill="#F3F3F3" transform="matrix(1.00, 0.00, -0.00, -1.00, 399.5, 252.0)">t</text><text xml:space="preserve" font-family="CourierNewPSMT" font-size="12.0" fill="#F3F3F3" transform="matrix(1.00, 0.00, -0.00, -1.00, 406.7, 252.0)">i</text><text xml:space="preserve" font-family="CourierNewPSMT" font-size="12.0" fill="#F3F3F3" transform="matrix(1.00, 0.00, -0.00, -1.00, 413.9, 252.0)">n</text><text xml:space="preserve" font-family="CourierNewPSMT" font-size="12.0" fill="#F3F3F3" transform="matrix(1.00, 0.00, -0.00, -1.00, 421.1, 252.0)">k</text><text xml:space="preserve" font-family="CourierNewPSMT" font-size="12.0" fill="#FF39D5" transform="matrix(1.00, 0.00, -0.00, -1.00, 428.3, 252.0)">/</text><text xml:space="preserve" font-family="CourierNewPSMT" font-size="12.0" fill="#F3F3F3" transform="matrix(1.00, 0.00, -0.00, -1.00, 435.5, 252.0)">d</text><text xml:space="preserve" font-family="CourierNewPSMT" font-size="12.0" fill="#F3F3F3" transform="matrix(1.00, 0.00, -0.00, -1.00, 442.7, 252.0)">o</text><text xml:space="preserve" font-family="CourierNewPSMT" font-size="12.0" fill="#F3F3F3" transform="matrix(1.00, 0.00, -0.00, -1.00, 449.9, 252.0)">c</text><text xml:space="preserve" font-family="CourierNewPSMT" font-size="12.0" fill="#F3F3F3" transform="matrix(1.00, 0.00, -0.00, -1.00, 457.1, 252.0)">k</text><text xml:space="preserve" font-family="CourierNewPSMT" font-size="12.0" fill="#F3F3F3" transform="matrix(1.00, 0.00, -0.00, -1.00, 464.3, 252.0)">e</text><text xml:space="preserve" font-family="CourierNewPSMT" font-size="12.0" fill="#F3F3F3" transform="matrix(1.00, 0.00, -0.00, -1.00, 471.5, 252.0)">r</text><text xml:space="preserve" font-family="CourierNewPSMT" font-size="12.0" fill="#F3F3F3" transform="matrix(1.00, 0.00, -0.00, -1.00, 478.7, 252.0)">t</text><text xml:space="preserve" font-family="CourierNewPSMT" font-size="12.0" fill="#F3F3F3" transform="matrix(1.00, 0.00, -0.00, -1.00, 485.9, 252.0)">e</text><text xml:space="preserve" font-family="CourierNewPSMT" font-size="12.0" fill="#F3F3F3" transform="matrix(1.00, 0.00, -0.00, -1.00, 493.1, 252.0)">s</text><text xml:space="preserve" font-family="CourierNewPSMT" font-size="12.0" fill="#F3F3F3" transform="matrix(1.00, 0.00, -0.00, -1.00, 500.3, 252.0)">t</text><text xml:space="preserve" font-family="CourierNewPSMT" font-size="12.0" fill="#FF39D5" transform="matrix(1.00, 0.00, -0.00, -1.00, 507.5, 252.0)">:</text><text xml:space="preserve" font-family="CourierNewPSMT" font-size="12.0" fill="#F3F3F3" transform="matrix(1.00, 0.00, -0.00, -1.00, 514.7, 252.0)">l</text><text xml:space="preserve" font-family="CourierNewPSMT" font-size="12.0" fill="#F3F3F3" transform="matrix(1.00, 0.00, -0.00, -1.00, 521.9, 252.0)">a</text><text xml:space="preserve" font-family="CourierNewPSMT" font-size="12.0" fill="#F3F3F3" transform="matrix(1.00, 0.00, -0.00, -1.00, 529.1, 252.0)">t</text><text xml:space="preserve" font-family="CourierNewPSMT" font-size="12.0" fill="#F3F3F3" transform="matrix(1.00, 0.00, -0.00, -1.00, 536.3, 252.0)">e</text><text xml:space="preserve" font-family="CourierNewPSMT" font-size="12.0" fill="#F3F3F3" transform="matrix(1.00, 0.00, -0.00, -1.00, 543.5, 252.0)">s</text><text xml:space="preserve" font-family="CourierNewPSMT" font-size="12.0" fill="#F3F3F3" transform="matrix(1.00, 0.00, -0.00, -1.00, 550.7, 252.0)">t</text><text xml:space="preserve" font-family="CourierNewPSMT" font-size="14.0" fill="#F3F3F3" transform="matrix(1.00, 0.00, -0.00, -1.00, 557.9, 252.0)"> </text><text xml:space="preserve" font-family="CourierNewPSMT" font-size="14.0" fill="#F3F3F3" transform="matrix(1.00, 0.00, -0.00, -1.00, 7.0, 220.0)">$</text><text xml:space="preserve" font-family="CourierNewPSMT" font-size="14.0" fill="#F3F3F3" transform="matrix(1.00, 0.00, -0.00, -1.00, 15.4, 220.0)">&gt;</text><text xml:space="preserve" font-family="CourierNewPSMT" font-size="14.0" fill="#F3F3F3" transform="matrix(1.00, 0.00, -0.00, -1.00, 23.8, 220.0)"> </text><text xml:space="preserve" font-family="CourierNewPSMT" font-size="14.0" fill="#F3F3F3" transform="matrix(1.00, 0.00, -0.00, -1.00, 32.2, 220.0)">d</text><text xml:space="preserve" font-family="CourierNewPSMT" font-size="14.0" fill="#F3F3F3" transform="matrix(1.00, 0.00, -0.00, -1.00, 40.6, 220.0)">o</text><text xml:space="preserve" font-family="CourierNewPSMT" font-size="14.0" fill="#F3F3F3" transform="matrix(1.00, 0.00, -0.00, -1.00, 49.0, 220.0)">c</text><text xml:space="preserve" font-family="CourierNewPSMT" font-size="14.0" fill="#F3F3F3" transform="matrix(1.00, 0.00, -0.00, -1.00, 57.4, 220.0)">k</text><text xml:space="preserve" font-family="CourierNewPSMT" font-size="14.0" fill="#F3F3F3" transform="matrix(1.00, 0.00, -0.00, -1.00, 65.8, 220.0)">e</text><text xml:space="preserve" font-family="CourierNewPSMT" font-size="14.0" fill="#F3F3F3" transform="matrix(1.00, 0.00, -0.00, -1.00, 74.2, 220.0)">r</text><text xml:space="preserve" font-family="CourierNewPSMT" font-size="14.0" fill="#F3F3F3" transform="matrix(1.00, 0.00, -0.00, -1.00, 82.6, 220.0)"> </text><text xml:space="preserve" font-family="CourierNewPSMT" font-size="14.0" fill="#F3F3F3" transform="matrix(1.00, 0.00, -0.00, -1.00, 91.0, 220.0)">p</text><text xml:space="preserve" font-family="CourierNewPSMT" font-size="14.0" fill="#F3F3F3" transform="matrix(1.00, 0.00, -0.00, -1.00, 99.4, 220.0)">u</text><text xml:space="preserve" font-family="CourierNewPSMT" font-size="14.0" fill="#F3F3F3" transform="matrix(1.00, 0.00, -0.00, -1.00, 107.8, 220.0)">s</text><text xml:space="preserve" font-family="CourierNewPSMT" font-size="14.0" fill="#F3F3F3" transform="matrix(1.00, 0.00, -0.00, -1.00, 116.2, 220.0)">h</text><text xml:space="preserve" font-family="CourierNewPSMT" font-size="14.0" fill="#000000" transform="matrix(1.00, 0.00, -0.00, -1.00, 124.6, 220.0)"> </text><text xml:space="preserve" font-family="CourierNewPSMT" font-size="14.0" fill="#E6BC98" transform="matrix(1.00, 0.00, -0.00, -1.00, 133.0, 220.0)">0</text><text xml:space="preserve" font-family="CourierNewPSMT" font-size="14.0" fill="#E6BC98" transform="matrix(1.00, 0.00, -0.00, -1.00, 141.4, 220.0)">6</text><text xml:space="preserve" font-family="CourierNewPSMT" font-size="14.0" fill="#F3F3F3" transform="matrix(1.00, 0.00, -0.00, -1.00, 149.8, 220.0)">.</text><text xml:space="preserve" font-family="CourierNewPSMT" font-size="14.0" fill="#F3F3F3" transform="matrix(1.00, 0.00, -0.00, -1.00, 158.2, 220.0)">.</text><text xml:space="preserve" font-family="CourierNewPSMT" font-size="14.0" fill="#F3F3F3" transform="matrix(1.00, 0.00, -0.00, -1.00, 166.6, 220.0)">.</text><text xml:space="preserve" font-family="CourierNewPSMT" font-size="14.0" fill="#F3F3F3" transform="matrix(1.00, 0.00, -0.00, -1.00, 175.0, 220.0)">a</text><text xml:space="preserve" font-family="CourierNewPSMT" font-size="14.0" fill="#F3F3F3" transform="matrix(1.00, 0.00, -0.00, -1.00, 183.4, 220.0)">m</text><text xml:space="preserve" font-family="CourierNewPSMT" font-size="14.0" fill="#F3F3F3" transform="matrix(1.00, 0.00, -0.00, -1.00, 191.8, 220.0)">a</text><text xml:space="preserve" font-family="CourierNewPSMT" font-size="14.0" fill="#F3F3F3" transform="matrix(1.00, 0.00, -0.00, -1.00, 200.2, 220.0)">z</text><text xml:space="preserve" font-family="CourierNewPSMT" font-size="14.0" fill="#F3F3F3" transform="matrix(1.00, 0.00, -0.00, -1.00, 208.6, 220.0)">o</text><text xml:space="preserve" font-family="CourierNewPSMT" font-size="14.0" fill="#F3F3F3" transform="matrix(1.00, 0.00, -0.00, -1.00, 217.0, 220.0)">n</text><text xml:space="preserve" font-family="CourierNewPSMT" font-size="14.0" fill="#F3F3F3" transform="matrix(1.00, 0.00, -0.00, -1.00, 225.4, 220.0)">a</text><text xml:space="preserve" font-family="CourierNewPSMT" font-size="14.0" fill="#F3F3F3" transform="matrix(1.00, 0.00, -0.00, -1.00, 233.9, 220.0)">w</text><text xml:space="preserve" font-family="CourierNewPSMT" font-size="14.0" fill="#F3F3F3" transform="matrix(1.00, 0.00, -0.00, -1.00, 242.3, 220.0)">s</text><text xml:space="preserve" font-family="CourierNewPSMT" font-size="14.0" fill="#F3F3F3" transform="matrix(1.00, 0.00, -0.00, -1.00, 250.7, 220.0)">.</text><text xml:space="preserve" font-family="CourierNewPSMT" font-size="14.0" fill="#F3F3F3" transform="matrix(1.00, 0.00, -0.00, -1.00, 259.1, 220.0)">c</text><text xml:space="preserve" font-family="CourierNewPSMT" font-size="14.0" fill="#F3F3F3" transform="matrix(1.00, 0.00, -0.00, -1.00, 267.5, 220.0)">o</text><text xml:space="preserve" font-family="CourierNewPSMT" font-size="14.0" fill="#F3F3F3" transform="matrix(1.00, 0.00, -0.00, -1.00, 275.9, 220.0)">m</text><text xml:space="preserve" font-family="CourierNewPSMT" font-size="14.0" fill="#FF39D5" transform="matrix(1.00, 0.00, -0.00, -1.00, 284.2, 220.0)">/</text><text xml:space="preserve" font-family="CourierNewPSMT" font-size="14.0" fill="#F3F3F3" transform="matrix(1.00, 0.00, -0.00, -1.00, 292.6, 220.0)">n</text><text xml:space="preserve" font-family="CourierNewPSMT" font-size="14.0" fill="#F3F3F3" transform="matrix(1.00, 0.00, -0.00, -1.00, 301.0, 220.0)">a</text><text xml:space="preserve" font-family="CourierNewPSMT" font-size="14.0" fill="#F3F3F3" transform="matrix(1.00, 0.00, -0.00, -1.00, 309.5, 220.0)">m</text><text xml:space="preserve" font-family="CourierNewPSMT" font-size="14.0" fill="#F3F3F3" transform="matrix(1.00, 0.00, -0.00, -1.00, 317.9, 220.0)">e</text><text xml:space="preserve" font-family="CourierNewPSMT" font-size="14.0" fill="#FF39D5" transform="matrix(1.00, 0.00, -0.00, -1.00, 326.3, 220.0)">/</text><text xml:space="preserve" font-family="CourierNewPSMT" font-size="14.0" fill="#F3F3F3" transform="matrix(1.00, 0.00, -0.00, -1.00, 334.7, 220.0)">a</text><text xml:space="preserve" font-family="CourierNewPSMT" font-size="14.0" fill="#F3F3F3" transform="matrix(1.00, 0.00, -0.00, -1.00, 343.1, 220.0)">p</text><text xml:space="preserve" font-family="CourierNewPSMT" font-size="14.0" fill="#F3F3F3" transform="matrix(1.00, 0.00, -0.00, -1.00, 351.5, 220.0)">p</text><text xml:space="preserve" font-family="CourierNewPSMT" font-size="14.0" fill="#FF39D5" transform="matrix(1.00, 0.00, -0.00, -1.00, 359.9, 220.0)">:</text><text xml:space="preserve" font-family="CourierNewPSMT" font-size="14.0" fill="#F3F3F3" transform="matrix(1.00, 0.00, -0.00, -1.00, 368.3, 220.0)">l</text><text xml:space="preserve" font-family="CourierNewPSMT" font-size="14.0" fill="#F3F3F3" transform="matrix(1.00, 0.00, -0.00, -1.00, 376.7, 220.0)">a</text><text xml:space="preserve" font-family="CourierNewPSMT" font-size="14.0" fill="#F3F3F3" transform="matrix(1.00, 0.00, -0.00, -1.00, 385.1, 220.0)">t</text><text xml:space="preserve" font-family="CourierNewPSMT" font-size="14.0" fill="#F3F3F3" transform="matrix(1.00, 0.00, -0.00, -1.00, 393.5, 220.0)">e</text><text xml:space="preserve" font-family="CourierNewPSMT" font-size="14.0" fill="#F3F3F3" transform="matrix(1.00, 0.00, -0.00, -1.00, 401.9, 220.0)">s</text><text xml:space="preserve" font-family="CourierNewPSMT" font-size="14.0" fill="#F3F3F3" transform="matrix(1.00, 0.00, -0.00, -1.00, 410.3, 220.0)">t</text><text xml:space="preserve" font-family="CourierNewPSMT" font-size="14.0" fill="#000000" transform="matrix(1.00, 0.00, -0.00, -1.00, 418.7, 220.0)"> </text><image xlink:href="6D3EFB3597819648F134A2D197CF17BC.png" width="721.00" height="85.00" transform="matrix(1.00, 0.00, -0.00, -1.01, -6.0, 529.0)"></image><image xlink:href="094ADC7DF4A7A2C760DFB72AE88BBE77.png" width="553.00" height="768.00" transform="matrix(1.09, 0.00, -0.00, -1.09, 562.0, 607.0)"></image></g></svg>